<?xml version="1.0" standalone="no"?>
<!DOCTYPE svg PUBLIC "-//W3C//DTD SVG 1.1//EN" "http://www.w3.org/Graphics/SVG/1.1/DTD/svg11.dtd" >
<svg xmlns="http://www.w3.org/2000/svg">
<metadata>Generated by IcoMoon</metadata>
<defs>
<font id="icomoon" horiz-adv-x="1024">
<font-face units-per-em="1024" ascent="960" descent="-64" />
<missing-glyph horiz-adv-x="1024" />
<glyph unicode="&#x20;" horiz-adv-x="512" d="" />
<glyph unicode="&#xe900;" glyph-name="arrow-down" horiz-adv-x="813" d="M419.322-56.648l376.471 376.471c9.806 9.806 9.806 25.687 0 35.491-9.803 9.803-25.687 9.803-35.488 0l-333.628-333.628v913.216c0 13.873-11.228 25.099-25.1 25.099s-25.097-11.226-25.097-25.099v-913.216l-333.627 333.628c-9.805 9.803-25.687 9.803-35.489 0-4.901-4.9-7.353-11.324-7.353-17.745s2.452-12.842 7.353-17.745l376.471-376.471c9.8-9.803 25.684-9.803 35.488 0z" />
<glyph unicode="&#xe901;" glyph-name="arrow-right" horiz-adv-x="1463" d="M1453.93 469.548l-457.143 457.143c-11.908 11.906-31.192 11.906-43.096 0s-11.904-31.192 0-43.094l405.12-405.118h-1328.334c-16.846 0-30.477-13.634-30.477-30.479s13.631-30.479 30.477-30.479h1328.334l-405.12-405.116c-11.904-11.904-11.904-31.192 0-43.092 5.95-5.954 13.751-8.931 21.548-8.931s15.594 2.977 21.548 8.931l457.143 457.143c11.904 11.9 11.904 31.188 0 43.092z" />
<glyph unicode="&#xe902;" glyph-name="arrow-vertical" d="M969.25 944.060l-603.361-6.55c-15.715-0.171-28.303-13.036-28.131-28.748 0.171-15.714 13.037-28.303 28.748-28.13l534.699 5.804-867.088-886.119c-10.996-11.24-10.801-29.232 0.437-40.226 11.238-10.998 29.229-10.803 40.225 0.437l867.089 886.119 5.803-534.7c0.171-15.712 13.036-28.3 28.747-28.129 7.854 0.085 14.933 3.345 20.023 8.547s8.192 12.346 8.11 20.204l-6.55 603.362c-0.171 15.71-13.036 28.299-28.751 28.128z" />
<glyph unicode="&#xe903;" glyph-name="bootstrap" d="M321.405 198.054h220.541c114.595 0 183.459 57.622 183.459 152.216 0 69.838-48.324 121.622-120.865 129.081v6.378c52.757 8.865 94.054 59.027 94.054 115.351 0 82.486-60.541 133.946-161.405 133.946h-215.784zM404.757 507.568v156.757h112.973c61.838 0 97.946-29.081 97.946-78.595 0-50.919-38.378-78.162-111.892-78.162zM404.757 268.757v173.081h115.676c78.486 0 119.892-29.405 119.892-85.622 0-56.973-39.892-87.459-115.027-87.459zM0 706.054c0 140.324 113.622 253.946 253.946 253.946h508c140.324 0 253.946-113.622 253.946-253.946v-508c0-140.324-113.622-253.946-253.946-253.946h-508c-140.324 0-253.946 113.622-253.946 253.946zM253.946 896.541c-105.189 0-190.486-85.297-190.486-190.486v-508c0-105.081 85.297-190.486 190.486-190.486h508c105.081 0 190.486 85.405 190.486 190.486v508c0 105.189-85.405 190.486-190.486 190.486z" />
<glyph unicode="&#xe904;" horiz-adv-x="737" d="M570.145 922.109h-60.353l62.775-67.958v-32.32h-129.329v37.85h62.775l-62.775 67.958v32.361h126.947l-0.041-37.891zM417.563 922.109h-60.434l62.857-67.958v-32.32h-129.37v37.85h62.775l-62.775 67.958v32.361h126.947v-37.891zM266.459 920.552h-65.117v-59.315h65.117v-39.448h-111.459v138.21h111.459v-39.448z" />
<glyph unicode="&#xe905;" horiz-adv-x="737" d="M66.226 18.213l-66.226 740.492h727.579l-66.308-740.369-297.933-82.338-297.112 82.215z" />
<glyph unicode="&#xe906;" horiz-adv-x="737" d="M363.78-1.079l240.746 66.564 56.611 632.68h-297.357v-699.245z" />
<glyph unicode="&#xe907;" horiz-adv-x="737" d="M363.78 429.896h120.537l8.298 92.985h-128.836v90.774h228.422l-2.177-24.373-22.391-250.284h-203.854v90.898z" />
<glyph unicode="&#xe908;" horiz-adv-x="737" d="M364.284 194.030h-0.412l-101.433 27.322-6.49 72.423h-91.369l12.777-142.594 187.132-51.778v94.626h-0.205z" />
<glyph unicode="&#xe909;" horiz-adv-x="737" d="M476.606 342.968l-10.969-121.537-101.597-27.322v-94.626l186.722 51.614 1.356 15.36 15.858 176.552-91.369-0.041z" />
<glyph unicode="&#xe90a;" horiz-adv-x="737" d="M364.114 613.655v-90.814h-219.957l-1.89 20.4-4.149 46.041-2.177 24.373h228.174zM363.784 429.896v-90.817h-100.282l-1.765 20.4-4.149 46.043-2.179 24.373h108.376z" />
<glyph unicode="&#xe90b;" horiz-adv-x="696" d="M170.693-63.998c94.19 0 170.633 76.458 170.633 170.666v170.666h-170.633c-94.189 0-170.633-76.458-170.633-170.666s76.443-170.666 170.633-170.666z" />
<glyph unicode="&#xe90c;" horiz-adv-x="696" d="M0.060 447.998c0 94.208 76.443 170.668 170.633 170.668h170.633v-341.334h-170.633c-94.189 0-170.633 76.46-170.633 170.666z" />
<glyph unicode="&#xe90d;" horiz-adv-x="696" d="M0.060 789.333c0 94.208 76.443 170.667 170.633 170.667h170.633v-341.334h-170.633c-94.189 0-170.633 76.46-170.633 170.667z" />
<glyph unicode="&#xe90e;" horiz-adv-x="696" d="M341.34 960h170.633c94.19 0 170.633-76.459 170.633-170.667s-76.444-170.667-170.633-170.667h-170.633v341.334z" />
<glyph unicode="&#xe90f;" horiz-adv-x="696" d="M682.607 447.998c0-94.206-76.444-170.666-170.633-170.666s-170.633 76.46-170.633 170.666c0 94.208 76.444 170.668 170.633 170.668s170.633-76.46 170.633-170.668z" />
<glyph unicode="&#xe910;" glyph-name="github" horiz-adv-x="1044" d="M521.882 960c-288.19 0-521.882-234.725-521.882-524.28 0-231.645 149.535-428.167 356.895-497.492 26.081-4.852 35.66 11.373 35.66 25.221 0 12.501-0.487 53.803-0.709 97.612-145.193-31.715-175.829 61.858-175.829 61.858-23.739 60.6-57.944 76.712-57.944 76.712-47.348 32.541 3.569 31.875 3.569 31.875 52.407-3.701 80.002-54.030 80.002-54.030 46.547-80.153 122.087-56.977 151.867-43.586 4.684 33.89 18.211 57.014 33.135 70.107-115.915 13.261-237.773 58.214-237.773 259.103 0 57.238 20.388 104.010 53.775 140.724-5.419 13.208-23.282 66.529 5.054 138.746 0 0 43.823 14.091 143.555-53.742 41.626 11.62 86.272 17.443 130.626 17.639 44.351-0.197 89.031-6.019 130.738-17.639 99.613 67.833 143.374 53.742 143.374 53.742 28.406-72.217 10.537-125.538 5.118-138.746 33.46-36.714 53.709-83.483 53.709-140.724 0-201.366-122.087-245.707-238.297-258.683 18.717-16.271 35.398-48.179 35.398-97.090 0-70.148-0.606-126.607-0.606-143.878 0-13.951 9.392-30.3 35.85-25.151 207.245 69.405 356.592 265.855 356.592 497.422 0 289.554-233.658 524.28-521.875 524.28zM195.478 213.15c-1.146-2.603-5.231-3.383-8.943-1.599-3.786 1.71-5.914 5.263-4.687 7.879 1.126 2.681 5.211 3.428 8.988 1.628 3.794-1.706 5.955-5.292 4.642-7.907zM221.149 190.14c-2.488-2.32-7.354-1.243-10.658 2.421-3.414 3.656-4.053 8.54-1.528 10.897 2.566 2.314 7.287 1.233 10.709-2.427 3.412-3.697 4.076-8.552 1.473-10.895l0.004 0.004zM238.762 160.698c-3.201-2.232-8.432-0.139-11.661 4.524-3.197 4.659-3.197 10.25 0.070 12.491 3.242 2.241 8.391 0.227 11.665-4.399 3.193-4.741 3.193-10.332-0.078-12.62l0.004 0.004zM268.542 126.599c-2.861-3.166-8.952-2.318-13.412 2.007-4.559 4.227-5.833 10.226-2.963 13.396 2.894 3.174 9.021 2.281 13.515-2.007 4.532-4.219 5.915-10.263 2.865-13.396h-0.004zM307.034 115.085c-1.257-4.102-7.127-5.97-13.038-4.227-5.902 1.798-9.765 6.609-8.575 10.758 1.229 4.131 7.123 6.076 13.079 4.211 5.894-1.79 9.765-6.564 8.538-10.742h-0.004zM350.845 110.205c0.147-4.325-4.866-7.911-11.071-7.989-6.242-0.135-11.289 3.365-11.354 7.617 0 4.366 4.899 7.918 11.137 8.022 6.205 0.123 11.289-3.353 11.289-7.649zM393.88 111.862c0.743-4.219-3.57-8.552-9.73-9.703-6.058-1.11-11.665 1.493-12.438 5.675-0.754 4.325 3.641 8.655 9.687 9.777 6.173 1.077 11.694-1.46 12.481-5.749z" />
<glyph unicode="&#xe911;" horiz-adv-x="737" d="M65.396 18.289l-65.396 740.446h718.596l-65.466-740.33-294.273-82.356-293.461 82.239z" />
<glyph unicode="&#xe912;" horiz-adv-x="737" d="M359.299-1.001l237.785 66.55 55.949 632.642h-293.734v-699.191z" />
<glyph unicode="&#xe913;" horiz-adv-x="737" d="M359.301 423.567h-119.040l-8.223 92.994h127.263v90.814h-225.581l2.156-24.363 22.11-250.255h201.316v90.81zM359.301 187.72l-0.395-0.109-100.19 27.312-6.404 72.423h-90.305l12.605-142.588 184.278-51.64 0.412 0.117v94.484z" />
<glyph unicode="&#xe914;" horiz-adv-x="737" d="M66.86 959.955h45.716v-45.595h41.819v45.595h45.718v-138.074h-45.718v46.234h-41.819v-46.234h-45.713l-0.003 138.074zM260.235 914.166h-40.245v45.789h126.233v-45.789h-40.264v-92.284h-45.724v92.284zM366.254 959.955h47.671l29.323-48.516 29.297 48.516h47.69v-138.074h-45.537v68.438l-31.453-49.093h-0.786l-31.474 49.093v-68.438h-44.732v138.074h0.002zM542.982 959.955h45.73v-92.436h64.295v-45.638h-110.025v138.074z" />
<glyph unicode="&#xe915;" horiz-adv-x="737" d="M358.98 423.567v-90.81h110.778l-10.445-117.778-100.334-27.335v-94.478l184.424 51.593 1.35 15.348 21.144 239.075 2.193 24.386h-209.111zM358.98 607.375v-90.814h217.299l1.802 20.414 4.098 46.037 2.152 24.363h-225.352z" />
<glyph unicode="&#xe916;" glyph-name="jquery" horiz-adv-x="1050" d="M1005.145 210.968l-4.545-11.792c-77.456-150.974-214.717-243.596-410.493-247.682-91.522-1.89-178.725 21.617-235.691 47.17-122.934 55.285-226.34 157.812-282.809 267.353-81.006 157.029-95.615 375.467 72.82 538.618 2.601 0-20.432-35.378-17.832-35.378l-4.636-15.097c-121.373-380.333 252.572-706.275 616.082-668.996 87.363 8.964 198.764 56.848 267.104 125.805zM785.164 368.236c91.454-0.622 186.98 42.157 243.549 102.219-49.491-125.737-192.79-206.554-384.948-180.854-160.905 21.549-314.176 183.603-329.962 345.986-11.545 118.176 29.604 188.707 97.414 274.266-23.565-44.749-32.372-79.256-34.567-101.268-25.758-255.637 204.031-439.002 408.513-440.349zM1019.534 685.754c-14.215-32.639-96.067-94.274-132.217-101.98-143.142-30.523-234.811 37.415-282.831 114.724-7.136 11.544-20.333 43.074-22.696 51.098-18.621 63.377-10.061 159.236 45.489 208.852-16.733-47.182-19.175-101.981-10.369-137.608 5.338-21.537 21.599-59.145 37.87-82.798 29.601-43.085 48.385-53.553 86.41-76.438 17.132-10.298 35.507-18.561 43.444-20.824 36.061-10.626 112.191-38.615 234.911 44.975z" />
<glyph unicode="&#xe917;" glyph-name="js" d="M958.683 960h-893.271c-36.139 0-65.413-29.271-65.413-65.406v-893.187c0-36.041 29.273-65.407 65.413-65.407h893.271c36.043 0 65.413 29.27 65.413 65.407v893.282c-0.096 36.040-29.37 65.311-65.413 65.311zM464.943 382.88c0-28.412-2.671-52.726-8.106-72.747-5.433-20.023-13.636-36.041-24.504-48.626-10.967-12.397-24.603-21.549-40.907-27.269-16.306-5.816-35.281-8.677-56.926-8.677-19.071 0-36.235 3.052-51.681 8.964-30.226 11.346-53.875 35.658-64.268 66.169-6.103 17.066-9.058 34.99-8.774 53.107v12.775h61.313c0-57.111 21.168-85.715 63.504-85.715 10.871 0 20.406 1.239 28.987 3.813 8.487 2.671 15.639 7.438 21.551 14.684 5.913 7.15 10.297 17.066 13.349 29.938s4.577 29.557 4.577 50.248v319.594h62.075l-0.19-316.258zM807.356 290.109c-6.484-13.062-15.636-24.599-26.888-33.847-12.587-10.107-27.081-17.83-42.529-22.596-16.687-5.341-35.375-8.010-56.068-8.010-91.634 0-139.979 36.135-144.937 108.597h60.264c0.285-40.903 28.32-61.401 84.005-61.401 12.397 0 23.458 1.333 32.897 4.098 9.535 2.671 17.451 6.484 23.745 11.252 12.3 8.868 19.546 23.073 19.452 38.232 0.285 6.674-1.049 13.255-3.719 19.356-2.48 4.958-7.342 9.249-14.494 13.062-9.535 4.671-19.452 8.391-29.751 11.061-16.495 4.766-33.087 9.343-49.775 13.634-19.927 4.958-37.188 9.916-51.585 14.873-12.777 4.006-24.793 10.013-35.662 17.926-9.058 6.769-16.21 15.731-20.693 26.028-4.481 10.394-6.674 23.456-6.674 39.186 0 13.826 2.957 26.698 8.774 38.615 5.911 11.823 14.207 22.12 25.268 30.892 10.871 8.675 24.123 15.446 39.571 20.404 16.781 5.149 34.327 7.627 51.872 7.436 88.584 0 133.685-31.463 135.021-94.487h-59.31c-2.097 31.463-25.84 47.29-71.229 47.29-10.107 0-19.356-1.049-28.033-3.052-8.677-2.001-16.019-4.862-22.407-8.675-6.39-3.719-11.252-8.391-14.877-13.92-3.527-5.72-5.433-12.394-5.243-19.165 0-6.578 0.858-12.014 2.478-16.208 1.622-4.291 5.532-8.2 11.825-11.823 6.197-3.623 15.446-7.246 27.652-10.772 12.204-3.529 28.891-7.913 50.059-13.062 20.406-4.958 38.238-10.013 53.303-15.352 14.971-5.339 27.462-11.727 37.569-19.259 10.013-7.436 17.355-16.685 22.219-27.46 4.768-10.772 7.246-24.312 7.246-40.522 0.19-15.35-3.052-29.364-9.345-42.332z" />
<glyph unicode="&#xe918;" horiz-adv-x="1085" d="M44.54 916.145h979.481v-936.293h-979.481v936.293z" />
<glyph unicode="&#xe919;" horiz-adv-x="1085" d="M44.521 916.144h979.481v-936.286h-979.481v936.286zM0-63.896h1068.524v1023.791h-1068.524v-1023.791zM720.364 539.879c-35.172 0-47.192-17.5-47.192-31.939 0-15.749 8.012-26.687 55.206-50.751 69.898-33.253 91.716-65.19 91.716-112.005 0-70.003-54.317-107.629-127.779-107.629-38.734 0-72.126 7.875-91.269 18.811-3.117 1.313-3.561 3.5-3.561 7.002v64.315c0 4.375 2.226 5.687 5.343 3.5 28.049-17.94 60.103-25.815 89.487-25.815 35.172 0 49.865 14.438 49.865 34.128 0 15.749-10.24 29.751-55.208 52.503-63.222 29.749-89.487 59.939-89.487 110.252 0 56.441 44.968 103.254 122.88 103.254 38.289 0 65.001-5.687 79.694-12.249 3.561-2.187 4.452-5.687 4.452-8.749v-59.939c0-3.5-2.226-5.689-6.681-4.375-19.589 12.247-48.527 19.685-77.466 19.685v0zM337.476 487.815c10.24-0.877 18.254-0.877 36.063-0.877 52.091 0 101.065 17.938 101.065 87.503 0 55.564-35.172 83.567-94.386 83.567-17.807 0-34.728-0.874-42.742-1.313v-168.88zM258.228 720.136c0 3.062 6.234 5.251 9.794 5.251 28.496 1.313 70.791 2.187 114.866 2.187 123.324 0 171.407-66.503 171.407-151.382 0-111.129-81.92-158.818-182.538-158.818-16.916 0-22.704 0.877-34.728 0.877v-168.008c0-3.5-1.335-5.249-5.341-5.249h-68.119c-3.561 0-5.343 1.313-5.343 5.249v469.893h0.002z" />
<glyph unicode="&#xe91a;" glyph-name="react" horiz-adv-x="1126" d="M1117.975 447.887c0 74.417-92.746 144.94-234.944 188.672 32.814 145.625 18.23 261.484-46.031 298.577-14.812 8.701-32.131 12.822-51.044 12.822v-51.060c10.481 0 18.913-2.061 25.976-5.953 30.991-17.86 44.436-85.864 33.956-173.33-2.506-21.522-6.61-44.191-11.622-67.318-44.664 10.993-93.43 19.464-144.704 24.957-30.764 42.361-62.666 80.828-94.797 114.486 74.289 69.378 144.018 107.387 191.419 107.387v51.060c-62.669 0-144.704-44.878-227.653-122.728-82.947 77.392-164.984 121.812-227.651 121.812v-51.060c47.171 0 117.13-37.78 191.419-106.7-31.903-33.659-63.805-71.897-94.113-114.257-51.502-5.494-100.268-13.965-144.932-25.185-5.24 22.897-9.116 45.107-11.85 66.401-10.711 87.466 2.506 155.471 33.27 173.559 6.838 4.122 15.724 5.953 26.207 5.953v51.060c-19.141 0-36.46-4.121-51.5-12.822-64.035-37.093-78.391-152.723-45.349-297.891-141.741-43.96-234.032-114.255-234.032-188.442 0-74.414 92.747-144.937 234.943-188.672-32.815-145.623-18.23-261.484 46.032-298.575 14.812-8.701 32.131-12.823 51.272-12.823 62.666 0 144.704 44.877 227.653 122.729 82.947-77.394 164.984-121.812 227.651-121.812 19.141 0 36.46 4.122 51.5 12.82 64.036 37.094 78.39 152.724 45.348 297.892 141.286 43.732 233.577 114.255 233.577 188.442zM821.276 600.612c-8.433-29.537-18.913-59.991-30.764-90.445-9.344 18.319-19.141 36.636-29.852 54.953-10.483 18.317-21.647 36.178-32.814 53.578 32.358-4.808 63.578-10.76 93.43-18.086zM716.908 356.756c-17.774-30.909-36.004-60.219-54.92-87.465-33.953-2.977-68.362-4.58-103.002-4.58-34.409 0-68.818 1.603-102.543 4.349-18.916 27.249-37.373 56.328-55.148 87.009-17.318 29.996-33.042 60.449-47.398 91.131 14.129 30.682 30.080 61.363 47.171 91.359 17.774 30.912 36.004 60.219 54.92 87.468 33.953 2.975 68.362 4.577 102.999 4.577 34.412 0 68.82-1.603 102.546-4.349 18.916-27.249 37.373-56.328 55.148-87.009 17.318-29.996 33.042-60.447 47.398-91.128-14.356-30.684-30.080-61.366-47.171-91.361zM790.513 386.524c12.306-30.682 22.789-61.366 31.447-91.131-29.852-7.327-61.299-13.509-93.885-18.317 11.167 17.631 22.331 35.72 32.814 54.264 10.483 18.319 20.28 36.864 29.624 55.183zM559.444 142.213c-21.194 21.98-42.386 46.479-63.352 73.27 20.511-0.916 41.475-1.603 62.666-1.603 21.422 0 42.614 0.458 63.352 1.603-20.511-26.79-41.702-51.29-62.666-73.27zM389.901 277.076c-32.358 4.808-63.578 10.76-93.43 18.089 8.43 29.537 18.913 59.988 30.764 90.442 9.344-18.317 19.141-36.636 29.852-54.953s21.647-36.178 32.814-53.578zM558.303 753.563c21.194-21.981 42.386-46.481 63.352-73.271-20.511 0.916-41.475 1.603-62.669 1.603-21.42 0-42.611-0.458-63.35-1.603 20.511 26.79 41.702 51.29 62.666 73.271zM389.673 618.698c-11.167-17.631-22.331-35.717-32.814-54.264-10.483-18.319-20.28-36.636-29.624-54.953-12.306 30.682-22.789 61.363-31.447 91.131 29.852 7.096 61.299 13.279 93.885 18.086zM183.443 332.029c-80.669 34.573-132.854 79.91-132.854 115.858s52.184 81.513 132.854 115.858c19.598 8.474 41.018 16.028 63.122 23.127 12.988-44.877 30.081-91.589 51.273-139.443-20.964-47.626-37.829-94.106-50.589-138.755-22.56 7.096-43.981 14.881-63.806 23.355zM306.043 4.831c-30.994 17.859-44.436 85.862-33.956 173.33 2.506 21.524 6.61 44.191 11.622 67.318 44.664-10.99 93.43-19.464 144.704-24.957 30.764-42.36 62.666-80.827 94.797-114.486-74.289-69.379-144.020-107.387-191.419-107.387-10.253 0.228-18.913 2.289-25.748 6.182zM846.572 179.305c10.708-87.465-2.506-155.471-33.272-173.558-6.835-4.122-15.724-5.955-26.204-5.955-47.171 0-117.13 37.78-191.419 106.701 31.903 33.659 63.805 71.895 94.113 114.255 51.502 5.496 100.268 13.967 144.932 25.188 5.24-23.127 9.344-45.338 11.85-66.632zM934.305 332.029c-19.599-8.474-41.019-16.028-63.124-23.127-12.989 44.879-30.080 91.589-51.272 139.443 20.964 47.626 37.827 94.106 50.588 138.757 22.561-7.099 43.981-14.884 64.036-23.357 80.668-34.573 132.851-79.91 132.851-115.858-0.228-35.948-52.411-81.513-133.079-115.858zM558.766 343.247c57.513 0 104.138 46.848 104.138 104.637 0 57.792-46.625 104.64-104.138 104.64-57.516 0-104.141-46.848-104.141-104.64 0-57.789 46.625-104.637 104.141-104.637z" />
<glyph unicode="&#xe91b;" horiz-adv-x="1044" d="M29.831 593.947c0 0-24.706 17.793 4.941 41.552l69.075 61.71c0 0 19.765 20.777 40.663 2.675l637.427-482.171v-231.213c0 0-0.309-36.307-46.942-32.295l-705.163 639.742z" />
<glyph unicode="&#xe91c;" horiz-adv-x="1044" d="M194.121 444.91l-164.298-149.238c0 0-16.883-12.548 0-34.97l76.281-69.323c0 0 18.118-19.44 44.883 2.675l174.181 131.959-131.048 118.897z" />
<glyph unicode="&#xe91d;" horiz-adv-x="1044" d="M482.58 443.677l301.316 229.876-1.956 229.98c0 0-12.868 50.192-55.796 24.068l-400.966-364.613 157.401-119.31z" />
<glyph unicode="&#xe91e;" horiz-adv-x="1044" d="M734.992-46.103c17.502-17.895 38.709-12.034 38.709-12.034l234.818 115.608c30.061 20.468 25.84 45.871 25.84 45.871v690.347c0 30.342-31.089 40.832-31.089 40.832l-203.524 98.019c-44.472 27.462-73.605-4.937-73.605-4.937s37.472 26.947 55.796-24.067v-912.817c0-6.273-1.339-12.446-4.014-17.998-5.353-10.801-16.986-20.879-44.886-16.663l1.956-2.161z" />
</font>
</defs>
</svg>
