<svg width="26" height="26" viewBox="0 0 26 26" fill="none" xmlns="http://www.w3.org/2000/svg">
<path d="M22.1924 3.80758C19.737 1.35227 16.4724 0 13 0C9.52758 0 6.263 1.35227 3.80758 3.80758C1.35227 6.263 0 9.52758 0 13C0 16.4724 1.35227 19.737 3.80758 22.1924C6.263 24.6477 9.52758 26 13 26C14.7547 26 16.4572 25.6562 18.0605 24.9781L17.4339 23.4969C16.03 24.0907 14.5382 24.3918 13 24.3918C6.71856 24.3918 1.60825 19.2814 1.60825 13C1.60825 6.71856 6.71856 1.60825 13 1.60825C19.2814 1.60825 24.3918 6.71856 24.3918 13C24.3918 15.7513 22.7013 17.0045 21.1305 17.0045C19.5599 17.0045 17.8694 15.7514 17.8694 13C17.8694 10.315 15.685 8.1306 13 8.1306C10.315 8.1306 8.1306 10.315 8.1306 13C8.1306 15.685 10.315 17.8694 13 17.8694C14.5898 17.8694 16.0039 17.1035 16.8931 15.9215C17.1209 16.3813 17.4075 16.7973 17.753 17.1606C18.6436 18.097 19.8431 18.6127 21.1305 18.6127C22.4181 18.6127 23.6175 18.097 24.5081 17.1606C25.4841 16.1345 26 14.6957 26 13C26 9.52758 24.6477 6.263 22.1924 3.80758ZM13 16.2612C11.2018 16.2612 9.73885 14.7982 9.73885 13C9.73885 11.2018 11.2018 9.73885 13 9.73885C14.7982 9.73885 16.2612 11.2018 16.2612 13C16.2612 14.7982 14.7982 16.2612 13 16.2612Z" fill="white"/>
</svg>
