<svg width="36" height="35" viewBox="0 0 36 35" fill="none" xmlns="http://www.w3.org/2000/svg">
<path d="M30.728 5.12559C27.3282 1.82036 22.808 0 18 0C13.192 0 8.67184 1.82036 5.27203 5.12559C1.87237 8.43096 0 12.8256 0 17.5C0 22.1744 1.87237 26.569 5.27203 29.8744C8.67184 33.1796 13.192 35 18 35C20.4295 35 22.787 34.5371 25.0068 33.6243L24.1392 31.6304C22.1954 32.4298 20.1299 32.835 18 32.835C9.30262 32.835 2.2268 25.9558 2.2268 17.5C2.2268 9.04422 9.30262 2.16495 18 2.16495C26.6974 2.16495 33.7732 9.04422 33.7732 17.5C33.7732 21.2037 31.4325 22.8906 29.2577 22.8906C27.0829 22.8906 24.7422 21.2038 24.7422 17.5C24.7422 13.8855 21.7177 10.945 18 10.945C14.2823 10.945 11.2578 13.8856 11.2578 17.5C11.2578 21.1144 14.2823 24.055 18 24.055C20.2012 24.055 22.1592 23.024 23.3905 21.4328C23.7058 22.0518 24.1026 22.6117 24.5811 23.1008C25.8142 24.3614 27.475 25.0555 29.2577 25.0555C31.0404 25.0555 32.7012 24.3613 33.9343 23.1008C35.2857 21.7195 36 19.7827 36 17.5C36 12.8256 34.1276 8.43096 30.728 5.12559ZM18 21.89C15.5102 21.89 13.4846 19.9206 13.4846 17.5C13.4846 15.0794 15.5102 13.11 18 13.11C20.4898 13.11 22.5154 15.0794 22.5154 17.5C22.5154 19.9206 20.4898 21.89 18 21.89Z" fill="white"/>
</svg>
