<svg width="26" height="26" viewBox="0 0 26 26" fill="none" xmlns="http://www.w3.org/2000/svg">
<path d="M13 0C5.85512 0 0 5.9059 0 13.0508C0 20.1542 5.80176 26 13 26C20.1893 26 26 20.1629 26 13.0508C26 5.9059 20.1449 0 13 0ZM15.2852 24.248C14.554 24.4004 13.777 24.4766 13 24.4766C12.223 24.4766 11.446 24.4004 10.7148 24.248V20.6832C10.7148 19.8301 10.9434 19.5254 11.248 19.114C11.4032 18.9366 11.4968 18.7776 12.1925 17.7278L11.0195 17.5449C8.00301 17.1032 6.8148 15.5339 6.3425 14.3152C5.73312 12.6852 6.05309 10.6436 7.15004 9.34891C7.31766 9.15074 7.45473 8.81551 7.33293 8.46519C7.10422 7.76437 7.13477 6.65234 7.28711 6.22566C8.09485 6.34111 8.9254 6.91974 9.61809 7.33789C9.93726 7.52415 10.1047 7.47496 10.2578 7.49023C10.8144 7.37439 11.6827 7.0941 13.0153 7.0941C13.8379 7.0941 14.7063 7.2159 15.5595 7.45969C15.712 7.45612 15.9572 7.58585 16.3821 7.33789C17.1061 6.89673 17.9085 6.33794 18.7129 6.22566C18.8652 6.65234 18.8958 7.76437 18.6673 8.46519C18.5453 8.81551 18.6823 9.15074 18.8502 9.34891C19.9469 10.6438 20.2669 12.6852 19.6575 14.3152C19.1852 15.5339 17.997 17.1032 14.9805 17.5449L13.8075 17.7278C14.5266 18.8129 14.6024 18.943 14.7522 19.114C15.0566 19.5254 15.2852 19.8301 15.2852 20.6832V24.248ZM16.8086 23.8063V20.6832C16.8086 19.8148 16.6257 19.236 16.3819 18.8093C18.6976 18.1848 20.343 16.8136 21.0742 14.8484C21.8512 12.7766 21.5009 10.3086 20.2058 8.60226C20.4345 7.58168 20.4345 5.95152 19.886 5.1898C19.6422 4.85477 19.307 4.67188 18.8805 4.67188C18.8652 4.67188 18.8652 4.67188 18.8652 4.67188C17.684 4.73575 16.7542 5.33064 15.7575 5.93625C14.8434 5.69246 13.9141 5.57066 12.9847 5.57066C12.0403 5.57066 11.0957 5.70773 10.258 5.93625C9.20866 5.30347 8.28786 4.73416 7.07387 4.67188C6.69301 4.67188 6.35777 4.85477 6.11398 5.1898C5.5657 5.95152 5.5657 7.58168 5.79422 8.60226C4.4991 10.3086 4.14879 12.7917 4.92578 14.8484C5.65695 16.8136 7.30238 18.1848 9.61809 18.8093C9.42905 19.14 9.27948 19.5667 9.22057 20.1441C8.75282 20.3054 8.34717 20.3579 7.96988 20.247C7.57196 20.1294 7.26192 19.8638 6.99254 19.4107C6.38753 18.3943 5.35703 17.5646 4.1837 17.6725L4.3176 19.19C4.86092 19.1402 5.40166 19.715 5.68254 20.1889C6.14592 20.9693 6.77017 21.4811 7.53844 21.708C8.10873 21.876 8.63004 21.872 9.19141 21.7522V23.8063C4.75816 22.2523 1.52344 18.0172 1.52344 13.0508C1.52344 6.74379 6.69301 1.52344 13 1.52344C19.307 1.52344 24.4766 6.74379 24.4766 13.0508C24.4766 18.0172 21.2418 22.2523 16.8086 23.8063Z" fill="white"/>
</svg>
