<svg width="35" height="35" viewBox="0 0 35 35" fill="none" xmlns="http://www.w3.org/2000/svg">
<path d="M30.1596 21.0472H24.3122C26.7635 17.1601 28.0049 13.6326 28.0049 10.5418C28.0049 4.72908 23.2772 0 17.4658 0C11.6545 0 6.92673 4.72908 6.92673 10.5418C6.92673 13.6326 8.16814 17.1603 10.6195 21.0472H4.77207L1.02539 35H33.9062L30.1596 21.0472ZM8.97697 10.5418C8.97697 5.85968 12.7851 2.05078 17.4658 2.05078C22.1466 2.05078 25.9547 5.85968 25.9547 10.5418C25.9547 13.5832 24.4347 17.3676 21.5596 21.4857C19.9839 23.7442 18.3665 25.576 17.4656 26.544C16.5659 25.5776 14.9509 23.7485 13.372 21.4854C10.4969 17.3676 8.97697 13.5832 8.97697 10.5418ZM6.34434 23.098H11.9976C13.8756 25.7202 15.5964 27.6159 17.4658 29.4629C19.2755 27.6754 20.9674 25.8438 22.9343 23.098H28.5876L31.2328 32.9492H3.69888L6.34434 23.098Z" fill="white"/>
<path d="M17.4658 16.5755C20.4806 16.5755 22.9332 14.1221 22.9332 11.1068C22.9332 8.09124 20.4806 5.63805 17.4658 5.63805C14.4511 5.63805 11.9984 8.09124 11.9984 11.1068C11.9984 14.1221 14.4511 16.5755 17.4658 16.5755ZM17.4658 7.68883C19.35 7.68883 20.883 9.22211 20.883 11.1068C20.883 12.9915 19.35 14.5248 17.4658 14.5248C15.5817 14.5248 14.0487 12.9915 14.0487 11.1068C14.0487 9.22211 15.5817 7.68883 17.4658 7.68883Z" fill="white"/>
</svg>
