<svg width="26" height="26" viewBox="0 0 26 26" fill="none" xmlns="http://www.w3.org/2000/svg">
<path d="M22.4043 15.6351H18.0605C19.8815 12.7475 20.8036 10.1271 20.8036 7.83102C20.8036 3.51303 17.2916 0 12.9746 0C8.65761 0 5.14557 3.51303 5.14557 7.83102C5.14557 10.1271 6.06776 12.7477 7.88875 15.6351H3.54497L0.761719 26H25.1875L22.4043 15.6351ZM6.66861 7.83102C6.66861 4.35291 9.49748 1.52344 12.9746 1.52344C16.4517 1.52344 19.2806 4.35291 19.2806 7.83102C19.2806 10.0904 18.1515 12.9016 16.0157 15.9608C14.8452 17.6385 13.6437 18.9993 12.9744 19.7184C12.3061 19.0005 11.1064 17.6417 9.93349 15.9606C7.7977 12.9016 6.66861 10.0904 6.66861 7.83102V7.83102ZM4.71294 17.1585H8.91251C10.3076 19.1064 11.5859 20.5146 12.9746 21.8867C14.3189 20.5589 15.5758 19.1983 17.0369 17.1585H21.2365L23.2015 24.4766H2.74774L4.71294 17.1585Z" fill="white"/>
<path d="M12.9746 12.3133C15.2141 12.3133 17.0361 10.4907 17.0361 8.25076C17.0361 6.01064 15.2141 4.18826 12.9746 4.18826C10.7351 4.18826 8.91309 6.01064 8.91309 8.25076C8.91309 10.4907 10.7351 12.3133 12.9746 12.3133V12.3133ZM12.9746 5.7117C14.3743 5.7117 15.5131 6.85071 15.5131 8.25076C15.5131 9.65082 14.3743 10.7898 12.9746 10.7898C11.5749 10.7898 10.4361 9.65082 10.4361 8.25076C10.4361 6.85071 11.5749 5.7117 12.9746 5.7117V5.7117Z" fill="white"/>
</svg>
