<svg width="26" height="26" viewBox="0 0 26 26" fill="none" xmlns="http://www.w3.org/2000/svg">
<g clip-path="url(#clip0)">
<path d="M25.999 22.1749L25.4829 22.7358C25.1978 23.0459 22.6306 25.7708 20.3461 25.9815C20.2121 25.9938 20.0723 26.0001 19.9302 26.0001C16.8674 25.9998 11.9662 23.0775 7.44389 18.5552C5.17002 16.2813 3.26004 13.8698 1.92041 11.5813C0.955122 9.93232 -0.158611 7.56515 0.0176432 5.6529C0.228173 3.36843 2.9532 0.801223 3.26327 0.516048L3.82419 0L10.7921 6.96795L8.4522 9.30788L16.6911 17.5468L19.031 15.2069L25.999 22.1749ZM23.7753 22.1987L19.031 17.4545L16.6911 19.7944L6.20455 9.30793L8.54448 6.968L3.79924 2.2227C2.94356 3.12511 1.70549 4.65683 1.60022 5.7988C1.49294 6.96302 2.09375 8.73149 3.29204 10.7785C4.56407 12.9515 6.38838 15.2521 8.56769 17.4314C12.6768 21.5405 17.3493 24.4105 19.9305 24.4107C20.0238 24.4107 20.1145 24.4067 20.2002 24.3988C21.3327 24.2944 22.8815 23.0418 23.7753 22.1987Z" fill="white"/>
</g>
<defs>
<clipPath id="clip0">
<rect width="26" height="26" transform="matrix(-1 0 0 1 26 0)" fill="white"/>
</clipPath>
</defs>
</svg>
