<svg width="35" height="35" viewBox="0 0 35 35" fill="none" xmlns="http://www.w3.org/2000/svg">
<g clip-path="url(#clip0)">
<path d="M34.999 29.8508L34.3043 30.6059C33.9204 31.0233 30.4646 34.6915 27.3893 34.975C27.2089 34.9917 27.0207 35.0001 26.8294 35.0001C22.7065 34.9997 16.1087 31.0658 10.021 24.9782C6.95998 21.9172 4.38886 18.6709 2.58552 15.5903C1.28609 13.3704 -0.213169 10.1839 0.0240974 7.60967C0.307503 4.53442 3.97581 1.07857 4.39321 0.69468L5.1483 0L14.5282 9.37993L11.3783 12.5298L22.4692 23.6207L25.6191 20.4708L34.999 29.8508ZM32.0055 29.8829L25.6191 23.4965L22.4692 26.6464L8.35262 12.5299L11.5025 9.38L5.11471 2.99209C3.96283 4.20687 2.29619 6.26881 2.15449 7.80607C2.01008 9.37329 2.81886 11.7539 4.43194 14.5095C6.14428 17.4347 8.60009 20.5317 11.5338 23.4654C17.0653 28.9968 23.3552 32.8603 26.8299 32.8605C26.9554 32.8605 27.0775 32.8552 27.1929 32.8446C28.7174 32.704 30.8023 31.0178 32.0055 29.8829Z" fill="white"/>
</g>
<defs>
<clipPath id="clip0">
<rect width="35" height="35" transform="matrix(-1 0 0 1 35 0)" fill="white"/>
</clipPath>
</defs>
</svg>
