<svg width="285" height="450" viewBox="0 0 285 450" fill="none" xmlns="http://www.w3.org/2000/svg">
<rect width="285" height="450" rx="3" fill="#628B70" fill-opacity="0.95"/>
<rect width="285" height="450" rx="3" fill="url(#paint0_linear)"/>
<circle cx="142.5" cy="27.5" r="13.5" fill="white"/>
<path d="M17.2929 27.2929C16.9024 27.6834 16.9024 28.3166 17.2929 28.7071L23.6569 35.0711C24.0474 35.4616 24.6805 35.4616 25.0711 35.0711C25.4616 34.6805 25.4616 34.0474 25.0711 33.6569L19.4142 28L25.0711 22.3431C25.4616 21.9526 25.4616 21.3195 25.0711 20.9289C24.6805 20.5384 24.0474 20.5384 23.6569 20.9289L17.2929 27.2929ZM35 27L18 27L18 29L35 29L35 27Z" fill="white"/>
<line x1="245" y1="22" x2="265" y2="22" stroke="white" stroke-width="2"/>
<line x1="245" y1="28" x2="265" y2="28" stroke="white" stroke-width="2"/>
<line x1="245" y1="34" x2="265" y2="34" stroke="white" stroke-width="2"/>
<rect x="99" y="73" width="87" height="57" stroke="black" stroke-opacity="0.2" stroke-width="4"/>
<line x1="108.345" y1="115.351" x2="128.851" y2="94.8448" stroke="black" stroke-opacity="0.2" stroke-width="4"/>
<line x1="128.864" y1="97.6658" x2="143.006" y2="111.808" stroke="black" stroke-opacity="0.2" stroke-width="4"/>
<line x1="142.986" y1="108.956" x2="152.499" y2="99.4426" stroke="black" stroke-opacity="0.2" stroke-width="4"/>
<line x1="152.514" y1="96.6258" x2="174.718" y2="118.829" stroke="black" stroke-opacity="0.2" stroke-width="4"/>
<circle cx="168.5" cy="88.5" r="6.5" stroke="black" stroke-opacity="0.2" stroke-width="4"/>
<line x1="119" y1="180" x2="166" y2="180" stroke="white" stroke-width="8"/>
<line x1="19" y1="180" x2="66" y2="180" stroke="white" stroke-opacity="0.4" stroke-width="8"/>
<line x1="218" y1="180" x2="265" y2="180" stroke="white" stroke-opacity="0.4" stroke-width="8"/>
<line y1="281.984" x2="285" y2="281.984" stroke="black" stroke-opacity="0.75" stroke-width="2"/>
<line y1="367.984" x2="285" y2="367.984" stroke="black" stroke-opacity="0.75" stroke-width="2"/>
<line x1="19" y1="235" x2="104" y2="235" stroke="white" stroke-width="10"/>
<line x1="19" y1="249.5" x2="219" y2="249.5" stroke="white" stroke-opacity="0.2" stroke-width="7"/>
<line x1="19" y1="401" x2="111" y2="401" stroke="white" stroke-width="10"/>
<line x1="19" y1="415.5" x2="199" y2="415.5" stroke="white" stroke-opacity="0.2" stroke-width="7"/>
<line x1="19" y1="317" x2="124" y2="317" stroke="white" stroke-width="10"/>
<line x1="19" y1="331.5" x2="179" y2="331.5" stroke="white" stroke-opacity="0.2" stroke-width="7"/>
<defs>
<linearGradient id="paint0_linear" x1="142.5" y1="0" x2="142.5" y2="450" gradientUnits="userSpaceOnUse">
<stop offset="0.440816" stop-color="white" stop-opacity="0"/>
<stop offset="0.440916" stop-color="#282645" stop-opacity="0.95"/>
</linearGradient>
</defs>
</svg>
