<svg width="477" height="358" viewBox="0 0 477 358" fill="none" xmlns="http://www.w3.org/2000/svg">
<path d="M228.126 210.802C225.681 212.622 222.729 215.546 221.656 219.723C220.881 222.825 221.626 224.645 221.358 228.643C221.179 231.417 220.464 235.325 218.168 239.979C212.951 238.905 204.186 237.861 193.841 240.248C187.67 241.68 182.721 243.917 179.084 245.946C179.65 246.304 180.426 246.722 181.409 246.99C186.984 248.512 192.857 243.828 193.036 244.156C193.215 244.454 186.477 247.617 186.835 250.361C187.074 252.211 190.383 253.196 193.811 254.24C196.703 255.105 199.446 255.94 203.113 255.523C208.151 254.956 211.639 252.42 213.189 251.107C214.68 251.853 216.886 252.838 219.659 253.703C224.757 255.254 231.792 257.402 236.473 254.478C239.514 252.569 240.438 248.094 242.167 239.204C244.254 228.374 245.238 222.945 242.436 218.499C238.769 212.563 231.226 211.19 228.126 210.802Z" fill="white" stroke="#313896" stroke-width="3" stroke-miterlimit="10"/>
<path d="M217.213 240.307C220.821 241.65 223.802 244.096 225.859 247.348C226.157 247.825 226.932 247.378 226.634 246.901C224.458 243.44 221.268 240.874 217.452 239.442C216.885 239.233 216.677 240.099 217.213 240.307Z" fill="#313896"/>
<path d="M198.015 246.185C194.467 246.781 191.605 249.168 190.323 252.509C190.115 253.046 190.979 253.285 191.188 252.748C192.35 249.705 195.034 247.587 198.253 247.05C198.82 246.96 198.581 246.095 198.015 246.185Z" fill="#313896"/>
<path d="M202.189 249.168C200.907 249.944 199.715 250.839 198.582 251.793C197.837 252.45 197.002 253.225 197.181 254.299C197.628 257.133 201.027 256.507 202.875 255.791C203.412 255.582 203.173 254.717 202.636 254.926C201.831 255.224 200.937 255.612 200.073 255.582C198.671 255.522 197.419 254.18 198.612 252.957C199.745 251.763 201.235 250.809 202.636 249.914C203.113 249.615 202.666 248.84 202.189 249.168Z" fill="#313896"/>
<path d="M255.939 174.078C254.419 174.585 252.481 175.36 250.305 176.434C249.679 176.733 248.099 177.538 246.399 178.642C243.776 180.313 241.868 182.073 239.692 184.281C236.919 187.115 234.117 189.949 230.778 194.484C227.975 198.302 223.623 204.299 220.492 213.099C219.24 216.59 218.525 219.603 218.107 221.751C219.747 220.796 221.238 220.319 222.4 220.051C229.108 218.529 235.548 221.93 241.659 225.122C243.955 226.316 245.773 227.479 247.026 228.285C247.681 225.063 248.337 221.811 248.993 218.589C249.56 215.874 250.096 213.129 250.663 210.414C251.527 209.669 252.69 208.565 253.972 207.133C256.387 204.388 261.186 198.929 261.842 191.351C262.647 182.61 257.46 175.927 255.939 174.078Z" fill="#5B7BEC"/>
<path d="M254.182 174.436C250.992 174.913 248.249 176.613 245.775 178.582C242.913 180.82 240.23 183.296 237.726 185.921C232.836 190.993 228.573 196.661 225.055 202.777C224.757 203.284 225.532 203.732 225.83 203.225C229.229 197.318 233.284 191.828 237.994 186.906C240.29 184.519 242.704 182.252 245.238 180.134C247.951 177.896 250.843 175.808 254.421 175.271C254.987 175.211 254.749 174.346 254.182 174.436Z" fill="#313896"/>
<path d="M252.931 207.014C250.724 209.251 248.459 211.429 246.163 213.547C245.746 213.935 246.372 214.561 246.789 214.174C249.085 212.055 251.35 209.878 253.557 207.64C253.944 207.222 253.318 206.596 252.931 207.014Z" fill="#313896"/>
<path d="M249.83 211.101C248.786 216.829 247.773 222.587 246.729 228.314C246.938 228.225 247.177 228.136 247.385 228.046C242.645 224.735 237.368 222.258 231.763 220.707C227.381 219.514 221.806 218.35 218.05 221.662C217.632 222.05 218.258 222.676 218.676 222.288C222.492 218.887 228.663 220.677 232.986 221.99C237.964 223.511 242.645 225.838 246.908 228.792C247.147 228.941 247.504 228.792 247.564 228.523C248.608 222.795 249.621 217.038 250.665 211.31C250.784 210.773 249.919 210.534 249.83 211.101Z" fill="#313896"/>
<path d="M225.263 202.36C222.162 208.416 218.287 214.651 218.018 221.662C217.988 222.229 218.883 222.229 218.913 221.662C219.181 214.83 222.997 208.744 226.038 202.807C226.276 202.3 225.501 201.852 225.263 202.36Z" fill="#313896"/>
<path opacity="0.4" d="M251.767 191.083C246.431 201.703 243.539 210.653 241.84 216.918C239.365 226.107 238.5 233.356 232.091 239.383C231.047 240.367 227.977 243.201 223.147 244.962C213.011 248.631 205.498 243.679 199.118 248.929C198.403 249.526 196.286 251.018 196.524 252.718C196.763 254.329 198.969 255.165 199.297 255.314C201.921 256.328 204.633 255.284 208.032 253.912C211.878 252.36 211.461 251.823 213.19 251.525C216.827 250.898 218.496 253.196 223.326 254.717C225.383 255.344 231.465 257.253 235.847 254.717C239.067 252.838 240.051 249.317 241.601 243.38C242.674 239.353 243.777 233.476 243.598 226.077C244.791 227.002 245.983 227.927 247.176 228.852C248.726 216.262 250.247 203.672 251.767 191.083Z" fill="#313896"/>
<path opacity="0.38" d="M249.978 204C245.894 211.727 243.897 218.261 242.823 222.676C240.677 231.537 241.363 235.713 238.441 241.948C235.311 248.721 230.242 253.017 226.725 255.463C228.692 255.91 233.432 256.746 236.861 254.061C239.276 252.181 239.902 249.496 240.826 245.111C241.989 239.711 243.211 233.565 244.403 226.823C245.328 227.42 246.252 228.016 247.176 228.613C248.13 220.439 249.054 212.205 249.978 204Z" fill="#313896"/>
<path d="M255.314 173.481C254.241 180.492 253.198 187.562 252.184 194.663C248.249 222.199 244.85 249.258 241.988 275.869C242.048 276.764 242.286 278.196 243.181 279.628C244.075 281.09 245.268 281.836 245.834 282.223C251.26 286.102 253.973 288.071 256.716 289.383C269.863 295.738 284.411 294.992 284.411 294.992C287.482 294.843 293.594 294.455 300.152 291.83C300.51 291.681 303.014 290.517 308.023 288.16C312.554 286.042 313.359 285.624 314.463 284.61C317.086 282.194 318.1 279.21 318.785 277.092C320.246 272.587 320.097 268.769 320.037 267.844C320.037 267.844 319.739 260.415 319.531 217.038C319.501 208.207 320.365 195.229 325.016 179.209C320.186 176.852 315.655 174.674 310.199 172.049C306.443 170.229 302.955 168.558 297.946 167.962C296.515 167.783 295.233 167.723 293.325 167.753C285.574 167.813 279.194 169.006 276.452 169.483C271.115 170.348 263.9 171.661 255.314 173.481Z" fill="#5B7BEC"/>
<path d="M255.076 174.525C264.317 172.556 273.649 170.975 283.01 169.811C283.427 169.752 283.666 169.215 283.248 168.976C283.129 168.916 283.01 168.827 282.861 168.767C282.354 168.469 281.907 169.245 282.414 169.543C282.533 169.603 282.652 169.692 282.801 169.752C282.891 169.483 282.95 169.185 283.04 168.916C273.589 170.08 264.168 171.661 254.867 173.66C254.271 173.779 254.509 174.644 255.076 174.525Z" fill="#313896"/>
<path d="M252.303 190.158C249.023 213.547 246.042 236.966 243.359 260.445C243.031 263.399 242.703 266.322 242.375 269.276C242.107 271.841 241.361 274.735 241.689 277.301C241.987 279.568 243.776 281 245.416 282.373C247.205 283.864 249.083 285.266 251.05 286.549C259.13 291.77 268.58 294.903 278.18 295.469C289.598 296.126 301.076 293.202 310.824 287.235C311.301 286.937 310.854 286.161 310.377 286.46C293.324 296.872 271.621 297.289 254.24 287.414C252.243 286.281 250.305 285.028 248.457 283.655C246.579 282.253 243.538 280.344 242.763 278.047C242.405 276.943 242.584 275.72 242.703 274.556C242.852 273.094 243.031 271.603 243.18 270.141C243.478 267.396 243.776 264.652 244.104 261.907C245.386 250.719 246.698 239.562 248.129 228.404C249.739 215.725 251.408 203.046 253.197 190.396C253.257 189.83 252.392 189.591 252.303 190.158Z" fill="#313896"/>
<path d="M296.216 167.693C301.463 168.737 306.383 171.154 311.272 173.212C316.072 175.241 321.408 176.882 325.641 179.985C326.118 180.313 326.566 179.537 326.089 179.209C321.945 176.166 316.727 174.555 312.047 172.586C306.979 170.468 301.881 167.932 296.455 166.828C295.889 166.709 295.65 167.574 296.216 167.693Z" fill="#313896"/>
<path d="M319.589 218.291C319.112 230.85 318.635 243.41 319.082 255.94C319.291 262.026 320.245 268.351 319.112 274.407C318.158 279.389 315.355 284.371 310.377 286.221C309.84 286.43 310.079 287.295 310.615 287.086C318.545 284.133 320.602 275.093 320.483 267.515C320.424 262.384 319.976 257.253 319.857 252.092C319.738 246.841 319.797 241.62 319.887 236.37C320.006 230.343 320.245 224.317 320.453 218.291C320.513 217.694 319.619 217.694 319.589 218.291Z" fill="#313896"/>
<path opacity="0.38" d="M315.296 211.22C313.716 216.65 311.242 222.587 307.426 228.494C290.343 254.777 259.07 260.027 251.08 261.131C261.813 262.265 272.664 263.488 283.635 264.801C295.739 266.233 307.694 267.754 319.47 269.306C318.725 255.97 318.725 244.991 318.903 237.145C319.231 220.916 320.394 207.789 318.277 207.372C317.771 207.252 316.876 207.819 315.296 211.22Z" fill="#313896"/>
<path opacity="0.42" d="M318.964 220.976C317.89 224.138 316.251 228.613 313.836 233.774C310.437 241.083 307.188 248.124 302.984 252.45C291.238 264.532 268.282 259.311 268.223 260.147C268.193 260.624 276.6 261.967 319.053 265.875C319.053 250.898 319.023 235.952 318.964 220.976Z" fill="#313896"/>
<path d="M372.447 343.978C263.035 329.36 153.593 314.742 44.1816 300.153C76.4686 281.418 108.785 262.682 141.072 243.947C239.781 253.673 338.52 263.428 437.23 273.154C415.616 296.752 394.031 320.38 372.447 343.978Z" fill="white" stroke="#313896" stroke-width="3" stroke-miterlimit="10"/>
<path d="M333.424 283.118C322.244 291.859 311.303 300.869 300.541 310.117C300.093 310.505 300.749 311.132 301.167 310.744C311.929 301.496 322.9 292.486 334.05 283.745C334.497 283.417 333.871 282.76 333.424 283.118Z" fill="#313896"/>
<path d="M300.957 310.595C304.475 311.341 308.052 311.341 311.659 311.37C315.714 311.43 319.53 311.848 323.405 312.981C330.68 315.1 337.805 316.502 345.407 316.323C345.974 316.323 345.974 315.428 345.407 315.428C341.502 315.517 337.596 315.279 333.721 314.652C330.083 314.055 326.625 312.982 323.078 311.997C319.679 311.042 316.28 310.595 312.733 310.535C308.857 310.446 304.981 310.565 301.165 309.76C300.629 309.61 300.39 310.476 300.957 310.595Z" fill="#313896"/>
<path d="M334.079 283.775C345.885 284.729 357.601 286.609 369.109 289.413C369.675 289.562 369.914 288.697 369.347 288.548C357.78 285.714 345.974 283.834 334.079 282.88C333.513 282.82 333.513 283.715 334.079 283.775Z" fill="#313896"/>
<path d="M346.094 315.786C354.411 307.552 362.401 298.96 369.974 290.01C370.331 289.562 369.705 288.936 369.348 289.383C361.775 298.303 353.785 306.895 345.468 315.159C345.05 315.577 345.676 316.203 346.094 315.786Z" fill="#313896"/>
<path d="M311.362 307.045C321.618 305.792 331.993 307.075 341.622 310.834C342.159 311.042 342.397 310.177 341.861 309.968C332.172 306.209 321.677 304.897 311.362 306.15C310.796 306.209 310.796 307.104 311.362 307.045Z" fill="#313896"/>
<path d="M326.893 303.763C333.213 304.24 339.444 305.225 345.615 306.687C346.182 306.836 346.42 305.971 345.854 305.822C339.623 304.33 333.303 303.345 326.893 302.868C326.297 302.838 326.327 303.733 326.893 303.763Z" fill="#313896"/>
<path d="M322.153 297.17C331.664 297.379 341.084 298.751 350.266 301.287C350.833 301.436 351.071 300.571 350.505 300.422C341.263 297.886 331.753 296.484 322.153 296.275C321.587 296.275 321.587 297.17 322.153 297.17Z" fill="#313896"/>
<path d="M333.959 294.425C339.086 295.141 344.155 296.036 349.223 297.11C349.789 297.23 350.028 296.364 349.461 296.245C344.393 295.171 339.325 294.276 334.197 293.56C333.631 293.47 333.392 294.336 333.959 294.425Z" fill="#313896"/>
<path d="M327.43 314.443C325.611 317.248 323.792 320.052 321.944 322.826C321.765 323.095 322.004 323.543 322.332 323.513C337.029 321.842 351.935 322.797 366.305 326.317C366.871 326.466 367.11 325.601 366.544 325.452C352.084 321.902 337.119 320.947 322.332 322.588C322.451 322.827 322.6 323.035 322.719 323.274C324.538 320.47 326.356 317.665 328.205 314.891C328.533 314.413 327.757 313.966 327.43 314.443Z" fill="#313896"/>
<path d="M363.474 297.498C369.228 297.379 374.952 297.259 380.706 297.14C380.556 296.961 380.407 296.752 380.288 296.573C376.323 306.03 372.328 315.458 368.363 324.915C368.154 325.452 369.019 325.69 369.228 325.153C373.193 315.696 377.188 306.269 381.153 296.812C381.272 296.543 380.974 296.245 380.735 296.245C374.982 296.364 369.258 296.484 363.504 296.603C362.907 296.633 362.907 297.528 363.474 297.498Z" fill="#313896"/>
<path d="M341.682 319.724C343.202 319.425 344.722 319.366 346.273 319.485C346.839 319.515 346.839 318.62 346.273 318.59C344.633 318.471 343.053 318.56 341.443 318.859C340.877 318.948 341.115 319.813 341.682 319.724Z" fill="#313896"/>
<path d="M350.147 319.813C354.828 319.992 359.509 320.44 364.159 321.156C364.726 321.245 364.964 320.38 364.398 320.291C359.688 319.545 354.917 319.097 350.147 318.918C349.581 318.888 349.581 319.784 350.147 319.813Z" fill="#313896"/>
<path d="M350.415 314.205C351.518 314.205 352.621 314.205 353.754 314.205C354.321 314.205 354.321 313.31 353.754 313.31C352.651 313.31 351.548 313.31 350.415 313.31C349.849 313.31 349.849 314.205 350.415 314.205Z" fill="#313896"/>
<path d="M357.362 314.115C361.029 314.205 364.666 314.563 368.304 315.159C368.87 315.249 369.108 314.384 368.542 314.294C364.845 313.697 361.119 313.339 357.362 313.22C356.796 313.22 356.796 314.115 357.362 314.115Z" fill="#313896"/>
<path d="M356.796 309.014C360.97 309.073 365.114 309.312 369.258 309.789C369.824 309.849 369.824 308.954 369.258 308.894C365.114 308.417 360.97 308.148 356.796 308.119C356.229 308.089 356.229 308.984 356.796 309.014Z" fill="#313896"/>
<path d="M328.802 318.918C330.799 318.978 332.767 318.739 334.734 318.262C335.301 318.113 335.062 317.248 334.496 317.397C332.618 317.874 330.74 318.083 328.802 318.023C328.235 318.023 328.235 318.918 328.802 318.918Z" fill="#313896"/>
<path d="M342.963 272.169C342.188 273.124 341.293 275.063 342.217 276.227C342.784 276.943 343.857 276.794 344.662 276.824C346.123 276.883 347.584 276.973 349.044 277.032C354.977 277.301 360.88 277.599 366.813 277.868C367.379 277.898 367.379 277.003 366.813 276.973C362.43 276.764 358.078 276.555 353.695 276.346C351.549 276.257 349.432 276.137 347.285 276.048C346.242 275.988 345.139 276.048 344.095 275.899C343.32 275.779 342.754 275.75 342.784 274.795C342.814 274.049 343.142 273.363 343.589 272.796C343.946 272.349 343.32 271.692 342.963 272.169Z" fill="#313896"/>
<path d="M343.769 273.303C348.777 273.482 353.786 273.631 358.794 273.81C361.239 273.9 363.713 273.959 366.158 274.049C368.364 274.138 370.689 274.288 372.269 275.988C372.657 276.406 373.283 275.779 372.895 275.362C371.703 274.049 370.093 273.542 368.364 273.303C365.8 272.975 363.147 273.035 360.553 272.945C354.948 272.766 349.344 272.557 343.769 272.378C343.202 272.408 343.202 273.303 343.769 273.303Z" fill="#313896"/>
<path d="M366.514 277.897C368.809 277.927 370.985 277.211 372.834 275.839C373.281 275.511 372.834 274.735 372.387 275.063C370.657 276.346 368.69 277.032 366.514 277.002C365.917 277.002 365.917 277.897 366.514 277.897Z" fill="#313896"/>
<path d="M367.23 273.303C365.978 274.139 365.412 275.69 365.829 277.122C365.978 277.659 366.843 277.45 366.694 276.883C366.396 275.839 366.753 274.676 367.678 274.049C368.155 273.751 367.707 272.975 367.23 273.303Z" fill="#313896"/>
<path d="M245.504 304.24C209.282 298.035 173.06 291.83 136.838 285.624C158.84 276.734 180.841 267.873 202.843 258.983C237.246 266.65 271.65 274.317 306.024 281.985C285.871 289.413 265.688 296.812 245.504 304.24Z" fill="white" stroke="#313896" stroke-width="3" stroke-miterlimit="10"/>
<path d="M244.014 304.688C244.134 305.046 244.223 305.434 244.342 305.792C244.491 306.269 245.207 306.18 245.207 305.672C245.207 305.374 245.207 305.106 245.207 304.807C245.207 304.24 244.313 304.24 244.313 304.807C244.313 305.165 244.253 305.493 244.104 305.822C244.402 305.822 244.67 305.822 244.969 305.822C244.849 305.434 244.819 305.076 244.909 304.658C244.641 304.688 244.372 304.718 244.104 304.777C244.193 304.867 244.193 304.927 244.134 305.016C244.402 305.046 244.67 305.076 244.939 305.135C244.879 304.927 244.909 304.748 245.028 304.569C244.76 304.479 244.462 304.419 244.193 304.33C244.134 304.807 244.074 305.255 244.014 305.732C243.985 305.971 244.253 306.18 244.462 306.18C244.73 306.18 244.879 305.971 244.909 305.732C244.969 305.255 245.028 304.807 245.088 304.33C245.147 303.882 244.462 303.763 244.253 304.091C244.014 304.479 243.955 304.926 244.074 305.374C244.164 305.762 244.7 305.792 244.879 305.493C245.118 305.135 245.118 304.688 244.849 304.36C244.641 304.091 244.104 304.061 244.044 304.479C243.925 305.016 243.955 305.583 244.104 306.12C244.253 306.567 244.819 306.508 244.969 306.12C245.118 305.702 245.207 305.285 245.207 304.867C244.909 304.867 244.611 304.867 244.313 304.867C244.313 305.165 244.313 305.434 244.313 305.732C244.611 305.702 244.909 305.643 245.177 305.613C245.058 305.255 244.969 304.867 244.849 304.509C244.73 303.882 243.865 304.121 244.014 304.688Z" fill="#313896"/>
<path d="M244.7 306.836C249.499 304.36 254.746 303.047 259.904 301.585C262.438 300.869 264.942 300.093 267.357 299.079C269.682 298.124 271.918 296.931 274.214 295.857C279.312 293.47 284.827 291.919 290.164 290.159C295.709 288.309 301.224 286.46 306.769 284.64C307.306 284.461 307.067 283.596 306.531 283.775C300.986 285.624 295.47 287.474 289.925 289.294C284.678 291.024 279.282 292.575 274.244 294.873C271.62 296.066 269.056 297.468 266.373 298.512C263.929 299.467 261.424 300.213 258.89 300.929C253.912 302.361 248.873 303.673 244.223 306.06C243.746 306.329 244.193 307.104 244.7 306.836Z" fill="#313896"/>
<path d="M245.118 306.657C265.718 299.527 286.259 292.307 306.8 284.968C308.41 284.401 307.724 281.806 306.084 282.372C285.573 289.711 265.003 296.931 244.402 304.061C242.792 304.628 243.478 307.224 245.118 306.657Z" fill="#313896"/>
<path d="M242.792 277.838C246.668 278.226 249.977 280.582 253.793 281.328C254.359 281.448 254.598 280.582 254.031 280.463C250.156 279.687 246.787 277.331 242.792 276.943C242.226 276.913 242.226 277.808 242.792 277.838Z" fill="#313896"/>
<path d="M254.061 280.911C256.416 279.628 258.622 278.106 260.619 276.316C261.037 275.928 260.411 275.302 259.993 275.69C258.026 277.42 255.909 278.912 253.614 280.135C253.107 280.433 253.554 281.209 254.061 280.911Z" fill="#313896"/>
<path d="M243.716 276.137C245.594 274.795 247.532 273.512 249.529 272.319C250.036 272.02 249.559 271.245 249.082 271.543C247.084 272.736 245.147 273.989 243.268 275.362C242.791 275.72 243.239 276.495 243.716 276.137Z" fill="#313896"/>
<path d="M249.679 272.468C253.078 273.751 256.477 275.004 259.905 276.286C260.442 276.495 260.68 275.63 260.144 275.421C256.745 274.138 253.346 272.885 249.918 271.603C249.381 271.424 249.143 272.289 249.679 272.468Z" fill="#313896"/>
<path d="M240.109 281.239C249.083 284.013 257.937 287.206 266.612 290.815C267.149 291.024 267.387 290.159 266.851 289.95C258.175 286.34 249.321 283.148 240.348 280.374C239.781 280.195 239.543 281.06 240.109 281.239Z" fill="#313896"/>
<path d="M240.973 288.19C246.548 290.875 252.182 293.411 257.877 295.887C258.413 296.126 258.86 295.35 258.324 295.111C252.63 292.665 246.995 290.099 241.42 287.414C240.913 287.176 240.466 287.951 240.973 288.19Z" fill="#313896"/>
<path d="M241.778 295.857C244.818 297.408 247.859 298.99 250.9 300.541C251.407 300.81 251.854 300.034 251.347 299.765C248.307 298.214 245.266 296.633 242.225 295.081C241.718 294.813 241.271 295.589 241.778 295.857Z" fill="#313896"/>
<path d="M243.508 296.126C247.712 292.546 252.124 289.264 256.715 286.221C257.192 285.893 256.745 285.117 256.268 285.445C251.617 288.518 247.146 291.889 242.882 295.499C242.435 295.887 243.061 296.513 243.508 296.126Z" fill="#313896"/>
<path d="M242.404 290.01C244.789 288.339 247.174 286.668 249.559 284.968C250.036 284.64 249.589 283.864 249.112 284.192C246.727 285.863 244.342 287.534 241.957 289.234C241.51 289.562 241.957 290.338 242.404 290.01Z" fill="#313896"/>
<path d="M243.895 306.299C206.421 299.914 168.946 293.53 131.472 287.146C127.954 260.505 124.407 233.893 120.889 207.252C161.225 212.682 201.531 218.111 241.868 223.571C242.553 251.137 243.239 278.703 243.895 306.299Z" fill="white" stroke="#313896" stroke-width="3" stroke-miterlimit="10"/>
<path d="M177.115 260.206C173.865 259.192 172.106 256.447 171.838 253.136C171.57 249.765 172.225 246.513 175.356 244.753C178.128 243.201 181.438 243.649 183.912 245.528C186.386 247.408 188.593 251.256 186.595 254.21C186.267 254.687 187.042 255.135 187.37 254.657C189.517 251.495 187.489 247.318 184.866 245.141C182.153 242.903 178.486 242.217 175.296 243.798C171.599 245.618 170.645 249.317 170.944 253.166C171.242 256.895 173.209 259.968 176.876 261.101C177.413 261.251 177.651 260.385 177.115 260.206Z" fill="#313896"/>
<path d="M177.951 260.535C176.579 258.267 177.027 255.105 179.233 253.524C181.439 251.943 184.599 252.599 186.268 254.628C186.626 255.075 187.252 254.449 186.894 254.001C184.927 251.644 181.23 250.988 178.666 252.808C176.102 254.657 175.566 258.357 177.176 260.982C177.474 261.459 178.249 261.012 177.951 260.535Z" fill="#313896"/>
<path d="M181.021 261.787C179.619 260.296 179.828 257.521 181.706 256.447C183.555 255.373 186.059 256.596 186.655 258.565C186.834 259.102 187.699 258.894 187.52 258.327C186.745 255.821 183.614 254.329 181.259 255.701C178.904 257.074 178.606 260.534 180.394 262.444C180.782 262.832 181.408 262.205 181.021 261.787Z" fill="#313896"/>
<path d="M183.317 263.876C184.48 264.293 185.821 263.607 186.268 262.503C186.745 261.4 186.119 260.206 185.076 259.729C184.033 259.252 182.78 259.52 182.214 260.534C181.677 261.519 181.856 262.861 182.751 263.577C183.198 263.935 183.824 263.309 183.377 262.951C182.184 262.026 183.019 259.848 184.599 260.505C185.285 260.773 185.762 261.489 185.434 262.235C185.106 262.951 184.271 263.309 183.556 263.04C183.019 262.832 182.78 263.697 183.317 263.876Z" fill="#313896"/>
<path d="M241.867 223.541L244.491 305.732" stroke="#313896" stroke-width="3" stroke-miterlimit="10"/>
<path d="M242.047 223.482C242.852 250.511 243.657 277.54 244.462 304.569" stroke="#313896" stroke-width="3" stroke-miterlimit="10"/>
<path opacity="0.37" d="M190.44 217.992C192.378 219.007 209.013 228.076 210.176 244.186C210.832 253.076 206.479 259.819 203.737 263.936C188.95 286.191 159.704 290.129 151.773 290.964C163.311 298.632 203.617 323.9 247.68 322.409C257.489 322.081 272.693 321.394 289.179 312.325C301.551 305.523 309.571 296.782 314.162 290.964C311.33 289.204 308.528 287.474 305.695 285.714C284.886 292.844 264.047 299.974 243.238 307.075C242.165 279.509 241.092 251.972 240.018 224.406C223.472 222.318 206.956 220.17 190.44 217.992Z" fill="#313896"/>
<path opacity="0.5" d="M166.74 292.904C170.616 295.469 176.608 299.139 184.359 302.659C194.019 307.074 222.609 320.141 253.584 312.892C276.092 307.611 293.503 293.142 292.37 290.756C291.655 289.264 282.92 290.815 244.014 306.299C243.388 293.679 242.762 281.03 242.166 268.41C241.093 279.031 239.99 289.652 238.916 300.243C214.858 297.826 190.799 295.35 166.74 292.904Z" fill="#313896"/>
<path d="M174.76 258.894C172.584 256.507 171.868 253.166 172.941 250.242C174.044 247.289 176.966 244.753 180.454 244.872C183.525 244.991 185.999 247.139 186.894 249.168C187.55 250.719 187.4 252.151 187.4 252.151C187.311 252.957 187.043 253.583 186.834 253.971C185.314 252.211 182.988 251.406 180.812 251.913C178.129 252.539 176.966 254.836 176.847 255.045C175.625 257.551 176.698 259.878 176.847 260.147C176.131 259.699 175.446 259.282 174.76 258.894Z" fill="#313896"/>
<path d="M325.613 221.125C324.003 222.318 322.274 223.929 320.694 226.047C314.821 233.953 315.626 243.231 316.043 246.244C310.826 245.17 302.061 244.126 291.716 246.513C285.545 247.945 280.596 250.182 276.959 252.211C277.525 252.569 278.301 252.987 279.284 253.255C284.859 254.777 290.732 250.093 290.911 250.421C291.09 250.719 284.352 253.882 284.71 256.626C284.949 258.476 288.258 259.46 291.686 260.505C294.578 261.37 297.321 262.205 300.988 261.787C306.026 261.221 309.514 258.685 311.064 257.372C312.555 258.118 314.761 259.103 317.534 259.968C322.632 261.519 329.667 263.667 334.348 260.743C337.389 258.834 338.313 254.359 340.042 245.469C342.248 234.072 343.351 228.374 340.311 224.764C336.286 219.961 328.207 220.767 325.613 221.125Z" fill="white" stroke="#313896" stroke-width="3" stroke-miterlimit="10"/>
<path d="M315.029 246.543C318.636 247.885 321.618 250.332 323.675 253.583C323.973 254.061 324.748 253.613 324.45 253.136C322.274 249.675 319.084 247.11 315.268 245.678C314.731 245.499 314.492 246.364 315.029 246.543Z" fill="#313896"/>
<path d="M295.861 252.45C292.313 253.046 289.451 255.433 288.169 258.774C287.96 259.311 288.825 259.55 289.034 259.013C290.196 255.97 292.879 253.852 296.099 253.315C296.666 253.225 296.427 252.36 295.861 252.45Z" fill="#313896"/>
<path d="M288.585 259.341C290.433 261.101 292.997 261.698 295.412 260.922C295.949 260.743 295.71 259.878 295.173 260.057C293.057 260.743 290.821 260.266 289.211 258.715C288.794 258.297 288.168 258.924 288.585 259.341Z" fill="#313896"/>
<path d="M300.004 255.403C298.722 256.179 297.529 257.074 296.396 258.029C295.651 258.685 294.816 259.461 294.995 260.535C295.442 263.369 298.841 262.742 300.689 262.026C301.226 261.817 300.988 260.952 300.451 261.161C299.646 261.459 298.752 261.847 297.887 261.817C296.486 261.758 295.234 260.415 296.426 259.192C297.559 257.999 299.05 257.044 300.451 256.149C300.958 255.88 300.511 255.105 300.004 255.403Z" fill="#313896"/>
<path d="M324.122 178.552C325.344 179.507 326.924 180.82 328.594 182.52C329.071 182.998 330.293 184.251 331.515 185.802C333.423 188.189 334.646 190.456 335.987 193.23C337.716 196.781 339.446 200.331 341.175 205.641C342.636 210.116 344.871 217.157 345.14 226.524C345.259 230.224 345.02 233.326 344.782 235.504C343.56 234.102 342.337 233.177 341.324 232.581C335.63 229.09 328.713 230.343 322.184 231.536C319.739 231.984 317.712 232.521 316.311 232.909C316.669 229.627 316.997 226.345 317.355 223.064C317.653 220.319 317.921 217.545 318.219 214.77C317.653 213.786 316.878 212.383 316.162 210.623C314.761 207.252 311.958 200.629 313.568 193.201C315.476 184.668 322.184 179.835 324.122 178.552Z" fill="#5B7BEC"/>
<path d="M325.165 180.193C328.147 181.745 330.144 184.43 331.873 187.204C333.662 190.068 335.272 193.022 336.703 196.065C339.625 202.27 341.771 208.833 343.172 215.546C343.291 216.113 344.156 215.874 344.037 215.307C342.606 208.326 340.34 201.554 337.239 195.11C335.719 191.948 334.05 188.875 332.142 185.921C330.442 183.296 328.445 180.85 325.642 179.388C325.106 179.149 324.659 179.925 325.165 180.193Z" fill="#313896"/>
<path d="M315.864 210.534C317.236 213.338 318.667 216.083 320.157 218.828C320.426 219.335 321.201 218.887 320.932 218.38C319.442 215.635 318.011 212.891 316.639 210.086C316.371 209.549 315.596 209.997 315.864 210.534Z" fill="#313896"/>
<path d="M317.981 215.665C317.236 221.453 316.491 227.241 315.775 233.028C315.745 233.327 316.103 233.535 316.342 233.446C321.41 231.835 326.687 231.059 331.993 231.238C336.197 231.387 341.772 231.775 344.127 235.892C344.425 236.399 345.17 235.952 344.902 235.445C342.666 231.507 337.777 230.701 333.663 230.433C327.73 230.015 321.768 230.791 316.133 232.581C316.312 232.73 316.521 232.879 316.699 232.998C317.445 227.211 318.19 221.423 318.906 215.635C318.965 215.098 318.071 215.098 317.981 215.665Z" fill="#313896"/>
<path d="M343.112 215.098C344.155 221.662 345.855 228.613 344.096 235.206C343.947 235.773 344.811 236.012 344.96 235.445C346.749 228.702 345.05 221.602 343.977 214.86C343.887 214.293 343.023 214.532 343.112 215.098Z" fill="#313896"/>
<path opacity="0.32" d="M321.856 177.449C324.569 182.52 327.282 188.577 329.577 195.528C334.079 209.251 335.272 221.572 335.361 230.791C332.32 230.97 329.279 231.149 326.238 231.328C327.222 238.398 328.236 245.498 329.22 252.569C327.312 251.465 324.39 250.063 320.634 249.228C319.411 248.959 314.91 248.064 310.11 248.87C300.033 250.57 293.951 258.834 292.58 260.803C293.951 261.37 295.71 261.907 297.827 262.026C304.326 262.414 309.066 258.655 310.468 257.462C314.91 259.699 318.785 260.773 321.528 261.31C326.328 262.295 331.933 263.428 335.033 260.445C335.272 260.206 335.808 259.639 336.971 256.746C338.789 252.151 339.743 247.855 340.996 240.069C341.264 238.339 341.651 236.011 342.039 233.237C342.784 233.983 343.559 234.759 344.305 235.504C344.662 234.162 345.11 232.163 345.348 229.717C345.974 223.362 344.752 218.35 343.589 214.263C338.909 197.735 336.106 187.771 326.745 180.551C324.807 179.119 323.019 178.075 321.856 177.449Z" fill="#313896"/>
<path opacity="0.29" d="M337.628 197.885C339.625 207.61 339.893 215.874 339.744 221.841C339.595 227.39 339.029 231.447 338.433 235.534C336.674 247.855 335.779 254.001 332.381 256.865C325.941 262.295 314.463 258.178 311.721 257.134C314.314 258.864 323.646 264.741 332.768 261.489C333.722 261.131 334.766 260.684 335.779 260.027C336.853 258.208 338.284 255.403 339.208 251.734C339.744 249.556 339.893 247.975 340.102 246.125C340.43 243.142 340.997 238.786 341.951 233.327C342.815 234.072 343.709 234.818 344.574 235.564C344.872 234.043 345.26 231.716 345.349 228.852C345.617 221.93 344.097 216.68 342.338 210.683C341.384 207.401 339.893 202.986 337.628 197.885Z" fill="#313896"/>
<path d="M255.672 119.572C255.97 122.764 256.507 127.239 257.699 132.52C258.474 135.95 258.951 138.128 259.965 140.843C261.485 144.93 264.377 152.747 271.92 157.848C273.738 159.101 276.749 160.772 280.983 161.756C281.668 161.816 282.354 161.905 283.04 161.965C283.278 163.218 283.576 165.068 283.875 167.305C284.59 173.063 284.232 174.823 285.723 176.375C287.542 178.254 290.433 178.075 291.059 178.015C296.038 177.687 298.542 172.735 298.662 172.466C297.857 171.005 297.052 169.215 296.396 167.126C294.965 162.502 294.935 158.385 295.174 155.581C297.469 152.269 300.003 149.733 302.567 147.764C303.551 147.019 304.386 146.004 305.846 145.497C307.933 144.781 309.007 145.497 310.557 145.02C313.121 144.214 314.224 140.903 314.701 139.53C316.519 134.101 314.283 128.731 312.852 125.539C311.57 122.615 308.231 115.365 300.093 109.697C291.715 103.85 274.961 97.3461 263.87 105.789C261.962 107.251 257.61 111.159 255.672 119.572Z" fill="white"/>
<path d="M256.925 131.863C255.017 131.535 250.187 130.402 247.057 126.255C242.287 119.96 244.851 111.159 247.504 106.505C251.678 99.1959 259.28 96.66 268.82 93.4679C274.484 91.5884 279.88 89.7984 287.214 90.0967C291.269 90.2757 305.012 90.8724 313.24 101.105C318.13 107.161 318.666 113.665 319.74 126.493C320.246 132.371 319.859 135.563 318.845 138.606C318.1 140.813 315.685 147.884 308.739 150.718C305.102 152.21 301.733 151.911 299.884 151.613C301.554 149.137 303.223 146.691 304.923 144.214C305.877 144.274 309.275 144.334 311.869 141.977C315.417 138.725 316.043 132.251 313.449 130.521C311.541 129.238 307.755 130.491 304.476 133.445C304.177 131.565 303.7 129.507 302.896 127.388C299.139 117.275 290.97 111.726 286.976 109.429C285.396 111.457 280.387 117.394 271.503 119.751C264.467 121.601 258.624 120.288 256.03 119.512C256.328 123.629 256.627 127.746 256.925 131.863Z" fill="black"/>
<path d="M255.434 120.348C256.656 129.566 257.938 139.143 262.44 147.436C266.137 154.238 272.099 160.056 279.761 161.995C280.327 162.144 280.566 161.279 279.999 161.13C272.427 159.191 266.584 153.343 263.006 146.571C258.743 138.516 257.521 129.268 256.328 120.348C256.239 119.781 255.345 119.781 255.434 120.348Z" fill="#313896"/>
<path d="M279.762 162.114C285.158 162.114 290.822 159.221 295.056 156.118C299.319 152.985 302.807 148.958 305.311 144.304C305.579 143.797 304.804 143.349 304.536 143.856C302.121 148.391 298.752 152.329 294.608 155.342C290.464 158.385 284.979 161.219 279.762 161.219C279.165 161.219 279.165 162.114 279.762 162.114Z" fill="#313896"/>
<path d="M295.026 155.402C294.429 161.428 295.592 167.455 298.335 172.854C298.603 173.362 299.378 172.914 299.11 172.407C296.427 167.126 295.353 161.279 295.92 155.402C295.98 154.835 295.085 154.835 295.026 155.402Z" fill="#313896"/>
<path d="M282.056 161.965C283.04 165.366 283.845 168.827 284.441 172.317C284.829 174.644 284.978 177.27 287.572 178.135C291.447 179.448 297.171 177.121 298.662 173.272C298.87 172.735 298.006 172.496 297.797 173.033C296.962 175.211 294.876 176.405 292.729 177.031C290.94 177.538 288.227 178.075 286.707 176.613C285.813 175.748 285.693 174.376 285.515 173.212C285.306 171.989 285.097 170.766 284.859 169.543C284.322 166.918 283.696 164.292 282.951 161.727C282.772 161.19 281.907 161.428 282.056 161.965Z" fill="#313896"/>
<path d="M283.339 165.665C288.646 164.978 292.134 160.921 294.697 156.565C294.996 156.058 294.22 155.611 293.922 156.118C291.567 160.175 288.288 164.143 283.339 164.77C282.772 164.859 282.772 165.754 283.339 165.665Z" fill="#313896"/>
<path d="M283.131 162.622C287.274 162.144 291.001 160.205 293.774 157.073C294.161 156.655 293.535 155.999 293.148 156.446C290.554 159.4 287.036 161.279 283.131 161.727C282.594 161.786 282.564 162.681 283.131 162.622Z" fill="#313896"/>
<path d="M283.279 161.965C286.618 161.488 289.629 160.116 292.193 157.938C292.64 157.55 291.984 156.923 291.567 157.311C289.122 159.4 286.231 160.682 283.041 161.13C282.474 161.19 282.713 162.055 283.279 161.965Z" fill="#313896"/>
<path d="M283.099 162.711C283.248 163.427 283.218 164.859 284.113 165.098C284.977 165.336 286.289 164.322 286.975 163.904C289.33 162.472 291.298 160.533 292.848 158.266C293.176 157.788 292.401 157.341 292.073 157.818C290.97 159.459 289.628 160.921 288.048 162.114C287.303 162.681 286.528 163.159 285.723 163.606C285.395 163.785 284.649 164.292 284.321 164.083C284.113 163.964 284.023 162.681 283.994 162.472C283.844 161.905 282.98 162.144 283.099 162.711Z" fill="#313896"/>
<path d="M283.518 163.546C286.081 162.502 288.496 161.19 290.762 159.608C291.239 159.28 290.792 158.505 290.315 158.833C288.109 160.384 285.783 161.667 283.279 162.681C282.742 162.89 282.981 163.755 283.518 163.546Z" fill="#313896"/>
<path d="M283.965 164.441C286.827 163.427 289.331 161.846 291.418 159.638C291.806 159.22 291.179 158.594 290.792 159.012C288.794 161.07 286.439 162.621 283.726 163.576C283.19 163.785 283.428 164.65 283.965 164.441Z" fill="#313896"/>
<path d="M284.441 163.964C286.558 163.039 288.496 161.786 290.165 160.175C290.583 159.787 289.957 159.161 289.539 159.549C287.9 161.1 286.051 162.293 283.994 163.188C283.458 163.427 283.905 164.203 284.441 163.964Z" fill="#313896"/>
<path d="M260.086 143.021C255.226 141.291 253.616 134.936 254.093 130.342C254.6 125.3 259.132 119.811 264.677 122.167C267.33 123.301 268.314 126.225 269.029 128.82C269.775 131.565 270.103 134.608 269.387 137.412C268.761 139.888 267.241 142.245 264.856 143.319C262.471 144.393 259.638 143.797 258.029 141.738C257.671 141.291 257.045 141.917 257.402 142.365C260.115 145.855 265.213 145.169 267.956 142.096C271.444 138.188 271.086 132.251 269.596 127.567C268.91 125.389 268.016 123.122 266.018 121.869C264.289 120.765 262.083 120.497 260.145 121.004C255.614 122.227 253.258 127.03 253.169 131.416C253.08 136.219 254.958 142.156 259.907 143.886C260.384 144.065 260.622 143.2 260.086 143.021Z" fill="#313896"/>
<path d="M270.4 134.101C273.321 132.341 276.869 132.162 279.91 133.683C280.417 133.952 280.864 133.176 280.357 132.907C277.018 131.237 273.143 131.386 269.923 133.325C269.476 133.623 269.923 134.399 270.4 134.101Z" fill="#313896"/>
<path d="M284.649 140.455C281.281 137.203 279.879 132.162 281.191 127.627C282.563 122.913 287.273 118.856 292.341 120.527C297.946 122.376 298.244 130.401 296.783 135.115C295.919 137.89 294.189 140.664 291.327 141.678C288.465 142.693 285.991 141.171 283.695 139.56C283.218 139.232 282.771 140.008 283.248 140.336C285.126 141.678 287.154 143.021 289.539 142.931C291.804 142.842 293.861 141.589 295.263 139.888C298.423 136.07 299.049 130.252 297.737 125.598C296.545 121.362 293.027 118.617 288.525 119.363C284.232 120.049 281.072 123.928 280.118 127.985C279.015 132.669 280.505 137.74 283.964 141.082C284.441 141.499 285.067 140.843 284.649 140.455Z" fill="#313896"/>
<path d="M262.798 130.64C262.5 132.52 262.828 134.339 263.842 135.95C264.05 136.279 264.527 136.219 264.646 135.831C265.362 133.773 264.348 131.744 263.335 129.984C263.126 129.596 262.5 129.775 262.5 130.222C262.53 131.804 262.858 133.355 263.454 134.817C263.663 135.354 264.527 135.115 264.319 134.578C263.752 133.176 263.424 131.744 263.394 130.222C263.126 130.312 262.828 130.372 262.56 130.461C263.484 132.042 264.438 133.773 263.782 135.622C264.05 135.592 264.319 135.563 264.587 135.503C263.692 134.101 263.365 132.52 263.633 130.879C263.752 130.312 262.888 130.073 262.798 130.64Z" fill="#313896"/>
<path d="M289.181 129.805C289.181 129.417 289.151 129.328 288.972 128.999C288.764 128.612 288.137 128.791 288.137 129.238C288.167 131.088 288.316 133.087 289.747 134.399C290.045 134.668 290.463 134.459 290.522 134.071C290.761 131.863 290.105 129.805 288.734 128.075C288.436 127.717 287.899 128.104 287.988 128.522C288.346 129.984 288.793 131.416 289.33 132.788C289.539 133.325 290.403 133.087 290.195 132.55C289.628 131.147 289.181 129.745 288.853 128.283C288.614 128.433 288.346 128.582 288.108 128.731C289.33 130.282 289.837 132.132 289.628 134.101C289.896 133.982 290.135 133.892 290.403 133.773C289.121 132.609 289.062 130.849 289.032 129.238C288.764 129.328 288.465 129.387 288.197 129.477C288.227 129.596 288.257 129.715 288.287 129.835C288.287 130.372 289.181 130.372 289.181 129.805Z" fill="#313896"/>
<path d="M273.38 135.682C272.784 137.472 272.277 139.292 271.949 141.141C271.77 142.126 271.144 143.976 271.592 144.96C272.486 146.959 276.451 145.736 277.822 145.079C278.329 144.841 277.882 144.065 277.375 144.304C276.272 144.841 275.08 145.109 273.857 145.02C273.142 144.96 272.575 144.841 272.426 144.035C272.337 143.588 272.635 142.424 272.724 141.917C273.082 139.859 273.619 137.86 274.275 135.891C274.424 135.384 273.559 135.145 273.38 135.682Z" fill="#313896"/>
<path d="M277.882 152.896C280.118 152.598 282.056 151.166 283.04 149.107C283.278 148.6 282.503 148.123 282.264 148.66C281.37 150.539 279.701 151.762 277.644 152.031C277.077 152.12 277.345 152.985 277.882 152.896Z" fill="#313896"/>
<path d="M260.92 128.075C261.486 127.388 262.53 127.269 263.245 127.866C263.692 128.254 264.319 127.597 263.871 127.239C262.828 126.344 261.218 126.404 260.294 127.448C259.906 127.866 260.532 128.492 260.92 128.075Z" fill="#313896"/>
<path d="M286.499 126.404C287.423 125.598 288.824 125.598 289.748 126.374C290.195 126.732 290.821 126.105 290.374 125.747C289.062 124.614 287.154 124.644 285.843 125.777C285.425 126.165 286.081 126.792 286.499 126.404Z" fill="#313896"/>
<path d="M298.245 130.521C301.465 129.387 304.774 128.701 308.202 128.522C308.769 128.492 308.769 127.597 308.202 127.627C304.714 127.806 301.316 128.492 298.006 129.656C297.47 129.865 297.678 130.73 298.245 130.521Z" fill="#313896"/>
<path opacity="0.4" d="M302.686 93.3485C304.475 95.6457 311.361 105.073 310.079 118.021C309.364 125.24 306.383 130.551 304.504 133.355C305.578 132.52 306.502 131.953 307.188 131.565C309.006 130.551 310.169 129.924 311.659 130.014C312.107 130.044 313.18 130.133 313.955 130.76C316.221 132.669 315.446 139.441 311.421 142.603C309.215 144.334 306.621 144.513 305.309 144.483C303.61 146.899 301.881 149.316 300.182 151.762C301.315 151.941 303.044 152.09 305.041 151.792C305.906 151.673 309.364 151.046 312.643 148.421C315.863 145.825 317.175 142.663 318.039 140.515C320.424 134.548 319.947 129.298 319.113 119.841C318.755 115.634 318.546 113.486 317.711 110.652C316.817 107.579 315.416 103.044 311.421 98.987C308.559 96.0037 305.339 94.333 302.686 93.3485Z" fill="#313896"/>
<path opacity="0.48" d="M273.889 118.856C276.87 116.201 280.209 112.8 283.429 108.564C285.426 105.938 287.096 103.402 288.467 101.046C287.96 103.731 287.453 106.416 286.976 109.101C285.814 110.771 283.876 113.158 280.865 115.336C278.211 117.215 275.707 118.259 273.889 118.856Z" fill="#313896"/>
<path opacity="0.27" d="M295.085 115.455C297.351 123.003 297.529 129.327 297.321 133.504C297.172 136.607 296.337 152.866 287.781 158.475C286.946 159.012 284.829 160.265 284.919 160.444C285.038 160.652 289.003 158.892 291.179 157.699C294.608 155.849 299.885 152.12 304.774 144.244C305.579 144.334 309.514 144.602 312.346 141.887C315.775 138.635 316.371 132.251 313.658 130.372C311.72 129.029 308.024 130.163 304.774 132.848C304.446 131.475 304.029 130.043 303.462 128.522C301.226 122.615 297.857 118.319 295.085 115.455Z" fill="#313896"/>
<path opacity="0.36" d="M287.9 160.205C288.676 162.592 289.451 164.978 290.226 167.395C291.299 170.677 292.342 173.988 293.386 177.27C293.982 177.15 295.443 176.733 296.725 175.42C298.007 174.107 298.424 172.675 298.573 172.079C297.411 169.782 296.039 166.291 295.562 161.876C295.324 159.579 295.383 157.55 295.562 155.849C293.028 157.311 290.464 158.773 287.9 160.205Z" fill="#313896"/>
<path opacity="0.43" d="M273.023 136.726C271.532 139.918 270.041 143.081 268.551 146.273C270.995 146.213 273.41 146.183 275.855 146.124C274.424 145.676 272.963 145.229 271.532 144.781C272.009 142.096 272.516 139.411 273.023 136.726Z" fill="#313896"/>
</svg>
