<svg width="393" height="290" viewBox="0 0 393 290" fill="none" xmlns="http://www.w3.org/2000/svg">
<g clip-path="url(#clip0)">
<path d="M184.126 142.802C181.681 144.622 178.729 147.546 177.656 151.723C176.881 154.825 177.626 156.645 177.358 160.643C177.179 163.417 176.464 167.325 174.168 171.979C168.951 170.905 160.186 169.861 149.841 172.248C143.67 173.68 138.721 175.917 135.084 177.946C135.65 178.304 136.426 178.722 137.409 178.99C142.984 180.512 148.857 175.828 149.036 176.156C149.215 176.454 142.477 179.617 142.835 182.361C143.074 184.211 146.383 185.196 149.811 186.24C152.703 187.105 155.446 187.94 159.113 187.523C164.151 186.956 167.639 184.42 169.189 183.107C170.68 183.853 172.886 184.838 175.659 185.703C180.757 187.254 187.792 189.402 192.473 186.478C195.514 184.569 196.438 180.094 198.167 171.204C200.254 160.374 201.238 154.945 198.436 150.499C194.769 144.563 187.226 143.19 184.126 142.802Z" fill="white" stroke="black" stroke-width="3" stroke-miterlimit="10"/>
<path d="M173.213 172.307C176.821 173.65 179.802 176.096 181.859 179.348C182.157 179.825 182.932 179.378 182.634 178.901C180.458 175.44 177.268 172.874 173.452 171.442C172.885 171.233 172.677 172.099 173.213 172.307Z" fill="black"/>
<path d="M154.015 178.185C150.467 178.781 147.605 181.168 146.323 184.509C146.115 185.046 146.979 185.285 147.188 184.748C148.35 181.705 151.034 179.587 154.253 179.05C154.82 178.96 154.581 178.095 154.015 178.185Z" fill="black"/>
<path d="M158.189 181.168C156.907 181.944 155.715 182.839 154.582 183.793C153.837 184.45 153.002 185.225 153.181 186.299C153.628 189.133 157.027 188.507 158.875 187.791C159.412 187.582 159.173 186.717 158.636 186.926C157.831 187.224 156.937 187.612 156.073 187.582C154.671 187.522 153.419 186.18 154.612 184.957C155.745 183.763 157.235 182.809 158.636 181.914C159.113 181.615 158.666 180.84 158.189 181.168Z" fill="black"/>
<path d="M211.939 106.078C210.419 106.585 208.481 107.36 206.305 108.434C205.679 108.733 204.099 109.538 202.399 110.642C199.776 112.313 197.868 114.073 195.692 116.281C192.919 119.115 190.117 121.949 186.778 126.484C183.975 130.302 179.623 136.299 176.492 145.099C175.24 148.59 174.525 151.603 174.107 153.751C175.747 152.796 177.238 152.319 178.4 152.051C185.108 150.529 191.548 153.93 197.659 157.122C199.955 158.316 201.773 159.479 203.026 160.285C203.681 157.063 204.337 153.811 204.993 150.589C205.56 147.874 206.096 145.129 206.663 142.414C207.527 141.669 208.69 140.565 209.972 139.133C212.387 136.388 217.186 130.929 217.842 123.351C218.647 114.61 213.46 107.927 211.939 106.078Z" fill="#5B7BEC"/>
<path d="M210.182 106.436C206.992 106.913 204.249 108.613 201.775 110.582C198.913 112.82 196.23 115.296 193.726 117.921C188.836 122.993 184.573 128.661 181.055 134.777C180.757 135.284 181.532 135.732 181.83 135.225C185.229 129.318 189.284 123.828 193.994 118.906C196.29 116.519 198.704 114.252 201.238 112.134C203.951 109.896 206.843 107.808 210.421 107.271C210.987 107.211 210.749 106.346 210.182 106.436Z" fill="black"/>
<path d="M208.931 139.014C206.724 141.251 204.459 143.429 202.163 145.547C201.746 145.935 202.372 146.561 202.789 146.174C205.085 144.055 207.35 141.878 209.557 139.64C209.944 139.222 209.318 138.596 208.931 139.014Z" fill="black"/>
<path d="M205.83 143.101C204.786 148.829 203.773 154.587 202.729 160.314C202.938 160.225 203.177 160.135 203.385 160.046C198.645 156.735 193.368 154.258 187.763 152.707C183.381 151.514 177.806 150.35 174.05 153.662C173.632 154.05 174.258 154.676 174.676 154.288C178.492 150.887 184.663 152.677 188.986 153.99C193.964 155.511 198.645 157.838 202.908 160.792C203.147 160.941 203.504 160.792 203.564 160.523C204.608 154.795 205.621 149.038 206.665 143.31C206.784 142.773 205.919 142.534 205.83 143.101Z" fill="black"/>
<path d="M181.263 134.36C178.162 140.416 174.287 146.651 174.018 153.662C173.988 154.229 174.883 154.229 174.913 153.662C175.181 146.83 178.997 140.744 182.038 134.807C182.276 134.3 181.501 133.852 181.263 134.36Z" fill="black"/>
<path opacity="0.4" d="M207.767 123.083C202.431 133.703 199.539 142.653 197.84 148.918C195.365 158.107 194.5 165.356 188.091 171.383C187.047 172.367 183.977 175.201 179.147 176.962C169.011 180.631 161.498 175.679 155.118 180.929C154.403 181.526 152.286 183.018 152.524 184.718C152.763 186.329 154.969 187.165 155.297 187.314C157.921 188.328 160.633 187.284 164.032 185.912C167.878 184.36 167.461 183.823 169.19 183.525C172.827 182.898 174.496 185.196 179.326 186.717C181.383 187.344 187.465 189.253 191.847 186.717C195.067 184.838 196.051 181.317 197.601 175.38C198.674 171.353 199.777 165.476 199.598 158.077C200.791 159.002 201.983 159.927 203.176 160.852C204.726 148.262 206.247 135.672 207.767 123.083Z" fill="black"/>
<path opacity="0.38" d="M205.978 136C201.894 143.727 199.897 150.261 198.823 154.676C196.677 163.537 197.363 167.713 194.441 173.948C191.311 180.721 186.242 185.017 182.725 187.463C184.692 187.91 189.432 188.746 192.861 186.061C195.276 184.181 195.902 181.496 196.826 177.111C197.989 171.711 199.211 165.565 200.403 158.823C201.328 159.42 202.252 160.016 203.176 160.613C204.13 152.439 205.054 144.205 205.978 136Z" fill="black"/>
<path d="M211.314 105.481C210.241 112.492 209.198 119.562 208.184 126.663C204.249 154.199 200.85 181.258 197.988 207.869C198.048 208.764 198.286 210.196 199.181 211.628C200.075 213.09 201.268 213.836 201.834 214.223C207.26 218.102 209.973 220.071 212.716 221.383C225.863 227.738 240.411 226.992 240.411 226.992C243.482 226.843 249.594 226.455 256.152 223.83C256.51 223.681 259.014 222.517 264.023 220.16C268.554 218.042 269.359 217.624 270.463 216.61C273.086 214.194 274.1 211.21 274.785 209.092C276.246 204.587 276.097 200.769 276.037 199.844C276.037 199.844 275.739 192.415 275.531 149.038C275.501 140.207 276.365 127.229 281.016 111.209C276.187 108.852 271.655 106.674 266.199 104.049C262.443 102.229 258.955 100.558 253.946 99.9618C252.515 99.7828 251.233 99.7231 249.325 99.7529C241.574 99.8126 235.194 101.006 232.452 101.483C227.115 102.348 219.9 103.661 211.314 105.481Z" fill="#5B7BEC"/>
<path d="M211.076 106.525C220.317 104.556 229.649 102.975 239.01 101.811C239.427 101.752 239.666 101.215 239.248 100.976C239.129 100.916 239.01 100.827 238.861 100.767C238.354 100.469 237.907 101.245 238.414 101.543C238.533 101.603 238.652 101.692 238.801 101.752C238.891 101.483 238.95 101.185 239.04 100.916C229.589 102.08 220.168 103.661 210.867 105.66C210.271 105.779 210.509 106.644 211.076 106.525Z" fill="black"/>
<path d="M208.303 122.158C205.023 145.547 202.042 168.966 199.359 192.445C199.031 195.399 198.703 198.322 198.375 201.276C198.107 203.841 197.361 206.735 197.689 209.301C197.987 211.568 199.776 213 201.416 214.373C203.205 215.864 205.083 217.266 207.05 218.549C215.13 223.77 224.58 226.903 234.18 227.469C245.598 228.126 257.076 225.202 266.824 219.235C267.301 218.937 266.854 218.161 266.377 218.46C249.324 228.872 227.621 229.289 210.24 219.414C208.243 218.281 206.305 217.028 204.457 215.655C202.579 214.253 199.538 212.344 198.763 210.047C198.405 208.943 198.584 207.72 198.703 206.556C198.852 205.094 199.031 203.603 199.18 202.141C199.478 199.396 199.776 196.652 200.104 193.907C201.386 182.719 202.698 171.562 204.129 160.404C205.739 147.725 207.408 135.046 209.197 122.396C209.257 121.83 208.392 121.591 208.303 122.158Z" fill="black"/>
<path d="M252.216 99.6932C257.463 100.737 262.383 103.154 267.272 105.212C272.072 107.241 277.408 108.882 281.641 111.985C282.118 112.313 282.566 111.537 282.089 111.209C277.945 108.166 272.727 106.555 268.047 104.586C262.979 102.468 257.881 99.9319 252.455 98.828C251.889 98.7087 251.65 99.5739 252.216 99.6932Z" fill="black"/>
<path d="M275.589 150.291C275.112 162.85 274.635 175.41 275.082 187.94C275.291 194.026 276.245 200.351 275.112 206.407C274.158 211.389 271.355 216.371 266.377 218.221C265.84 218.43 266.079 219.295 266.615 219.086C274.545 216.133 276.602 207.093 276.483 199.515C276.424 194.384 275.976 189.253 275.857 184.092C275.738 178.841 275.797 173.62 275.887 168.37C276.006 162.343 276.245 156.317 276.453 150.291C276.513 149.694 275.619 149.694 275.589 150.291Z" fill="black"/>
<path opacity="0.38" d="M271.296 143.22C269.716 148.65 267.242 154.587 263.426 160.494C246.343 186.777 215.07 192.027 207.08 193.131C217.813 194.265 228.664 195.488 239.635 196.801C251.739 198.233 263.694 199.754 275.47 201.306C274.725 187.97 274.725 176.991 274.903 169.145C275.231 152.916 276.394 139.789 274.277 139.372C273.771 139.252 272.876 139.819 271.296 143.22Z" fill="black"/>
<path opacity="0.42" d="M274.964 152.976C273.89 156.138 272.251 160.613 269.836 165.774C266.437 173.083 263.188 180.124 258.984 184.45C247.238 196.532 224.282 191.311 224.223 192.147C224.193 192.624 232.6 193.967 275.053 197.875C275.053 182.898 275.023 167.952 274.964 152.976Z" fill="black"/>
<path d="M328.447 275.978C219.035 261.36 109.593 246.742 0.181641 232.153C32.4686 213.418 64.7853 194.682 97.0722 175.947C195.781 185.673 294.52 195.428 393.23 205.154C371.616 228.752 350.031 252.38 328.447 275.978Z" fill="white" stroke="white" stroke-width="3" stroke-miterlimit="10"/>
<path d="M289.424 215.118C278.244 223.859 267.303 232.869 256.541 242.117C256.093 242.505 256.749 243.132 257.167 242.744C267.929 233.496 278.9 224.486 290.05 215.745C290.497 215.417 289.871 214.76 289.424 215.118Z" fill="black"/>
<path d="M256.957 242.595C260.475 243.341 264.052 243.341 267.659 243.37C271.714 243.43 275.53 243.848 279.405 244.981C286.68 247.1 293.805 248.502 301.407 248.323C301.974 248.323 301.974 247.428 301.407 247.428C297.502 247.517 293.596 247.279 289.721 246.652C286.083 246.055 282.625 244.982 279.078 243.997C275.679 243.042 272.28 242.595 268.733 242.535C264.857 242.446 260.981 242.565 257.165 241.76C256.629 241.61 256.39 242.476 256.957 242.595Z" fill="black"/>
<path d="M290.079 215.775C301.885 216.729 313.601 218.609 325.109 221.413C325.675 221.562 325.914 220.697 325.347 220.548C313.78 217.714 301.974 215.834 290.079 214.88C289.513 214.82 289.513 215.715 290.079 215.775Z" fill="black"/>
<path d="M302.094 247.786C310.411 239.552 318.401 230.96 325.974 222.01C326.331 221.562 325.705 220.936 325.348 221.383C317.775 230.303 309.785 238.895 301.468 247.159C301.05 247.577 301.676 248.203 302.094 247.786Z" fill="black"/>
<path d="M267.362 239.045C277.618 237.792 287.993 239.075 297.622 242.834C298.159 243.042 298.397 242.177 297.861 241.968C288.172 238.209 277.677 236.897 267.362 238.15C266.796 238.209 266.796 239.104 267.362 239.045Z" fill="black"/>
<path d="M282.893 235.763C289.213 236.24 295.444 237.225 301.615 238.687C302.182 238.836 302.42 237.971 301.854 237.822C295.623 236.33 289.303 235.345 282.893 234.868C282.297 234.838 282.327 235.733 282.893 235.763Z" fill="black"/>
<path d="M278.153 229.17C287.664 229.379 297.084 230.751 306.266 233.287C306.833 233.436 307.071 232.571 306.505 232.422C297.263 229.886 287.753 228.484 278.153 228.275C277.587 228.275 277.587 229.17 278.153 229.17Z" fill="black"/>
<path d="M289.959 226.425C295.086 227.141 300.155 228.036 305.223 229.11C305.789 229.23 306.028 228.364 305.461 228.245C300.393 227.171 295.325 226.276 290.197 225.56C289.631 225.47 289.392 226.336 289.959 226.425Z" fill="black"/>
<path d="M283.43 246.443C281.611 249.248 279.792 252.052 277.944 254.826C277.765 255.095 278.004 255.543 278.332 255.513C293.029 253.842 307.935 254.797 322.305 258.317C322.871 258.466 323.11 257.601 322.544 257.452C308.084 253.902 293.119 252.947 278.332 254.588C278.451 254.827 278.6 255.035 278.719 255.274C280.538 252.47 282.356 249.665 284.205 246.891C284.533 246.413 283.757 245.966 283.43 246.443Z" fill="black"/>
<path d="M319.474 229.498C325.228 229.379 330.952 229.259 336.706 229.14C336.556 228.961 336.407 228.752 336.288 228.573C332.323 238.03 328.328 247.458 324.363 256.915C324.154 257.452 325.019 257.69 325.228 257.153C329.193 247.696 333.188 238.269 337.153 228.812C337.272 228.543 336.974 228.245 336.735 228.245C330.982 228.364 325.258 228.484 319.504 228.603C318.907 228.633 318.907 229.528 319.474 229.498Z" fill="black"/>
<path d="M297.682 251.724C299.202 251.425 300.722 251.366 302.273 251.485C302.839 251.515 302.839 250.62 302.273 250.59C300.633 250.471 299.053 250.56 297.443 250.859C296.877 250.948 297.115 251.813 297.682 251.724Z" fill="black"/>
<path d="M306.147 251.813C310.828 251.992 315.509 252.44 320.159 253.156C320.726 253.245 320.964 252.38 320.398 252.291C315.688 251.545 310.917 251.097 306.147 250.918C305.581 250.888 305.581 251.784 306.147 251.813Z" fill="black"/>
<path d="M306.415 246.205C307.518 246.205 308.621 246.205 309.754 246.205C310.321 246.205 310.321 245.31 309.754 245.31C308.651 245.31 307.548 245.31 306.415 245.31C305.849 245.31 305.849 246.205 306.415 246.205Z" fill="black"/>
<path d="M313.362 246.115C317.029 246.205 320.666 246.563 324.304 247.159C324.87 247.249 325.108 246.384 324.542 246.294C320.845 245.697 317.119 245.339 313.362 245.22C312.796 245.22 312.796 246.115 313.362 246.115Z" fill="black"/>
<path d="M312.796 241.014C316.97 241.073 321.114 241.312 325.258 241.789C325.824 241.849 325.824 240.954 325.258 240.894C321.114 240.417 316.97 240.148 312.796 240.119C312.229 240.089 312.229 240.984 312.796 241.014Z" fill="black"/>
<path d="M284.802 250.918C286.799 250.978 288.767 250.739 290.734 250.262C291.301 250.113 291.062 249.248 290.496 249.397C288.618 249.874 286.74 250.083 284.802 250.023C284.235 250.023 284.235 250.918 284.802 250.918Z" fill="black"/>
<path d="M298.963 204.169C298.188 205.124 297.293 207.063 298.217 208.227C298.784 208.943 299.857 208.794 300.662 208.824C302.123 208.883 303.584 208.973 305.044 209.032C310.977 209.301 316.88 209.599 322.813 209.868C323.379 209.898 323.379 209.003 322.813 208.973C318.43 208.764 314.078 208.555 309.695 208.346C307.549 208.257 305.432 208.137 303.285 208.048C302.242 207.988 301.139 208.048 300.095 207.899C299.32 207.779 298.754 207.75 298.784 206.795C298.814 206.049 299.142 205.363 299.589 204.796C299.946 204.349 299.32 203.692 298.963 204.169Z" fill="black"/>
<path d="M299.769 205.303C304.777 205.482 309.786 205.631 314.794 205.81C317.239 205.9 319.713 205.959 322.158 206.049C324.364 206.138 326.689 206.288 328.269 207.988C328.657 208.406 329.283 207.779 328.895 207.362C327.703 206.049 326.093 205.542 324.364 205.303C321.8 204.975 319.147 205.035 316.553 204.945C310.948 204.766 305.344 204.557 299.769 204.378C299.202 204.408 299.202 205.303 299.769 205.303Z" fill="black"/>
<path d="M322.514 209.897C324.809 209.927 326.985 209.211 328.834 207.839C329.281 207.511 328.834 206.735 328.387 207.063C326.657 208.346 324.69 209.032 322.514 209.002C321.917 209.002 321.917 209.897 322.514 209.897Z" fill="black"/>
<path d="M323.23 205.303C321.978 206.139 321.412 207.69 321.829 209.122C321.978 209.659 322.843 209.45 322.694 208.883C322.396 207.839 322.753 206.676 323.678 206.049C324.155 205.751 323.707 204.975 323.23 205.303Z" fill="black"/>
<path d="M201.504 236.24C165.282 230.035 129.06 223.83 92.8379 217.624C114.84 208.734 136.841 199.873 158.843 190.983C193.246 198.65 227.65 206.317 262.024 213.985C241.871 221.413 221.688 228.812 201.504 236.24Z" fill="white" stroke="#2C3C72" stroke-width="3" stroke-miterlimit="10"/>
<path d="M200.014 236.688C200.134 237.046 200.223 237.434 200.342 237.792C200.491 238.269 201.207 238.18 201.207 237.672C201.207 237.374 201.207 237.106 201.207 236.807C201.207 236.24 200.313 236.24 200.313 236.807C200.313 237.165 200.253 237.493 200.104 237.822C200.402 237.822 200.67 237.822 200.969 237.822C200.849 237.434 200.819 237.076 200.909 236.658C200.641 236.688 200.372 236.718 200.104 236.777C200.193 236.867 200.193 236.927 200.134 237.016C200.402 237.046 200.67 237.076 200.939 237.135C200.879 236.927 200.909 236.748 201.028 236.569C200.76 236.479 200.462 236.419 200.193 236.33C200.134 236.807 200.074 237.255 200.014 237.732C199.985 237.971 200.253 238.18 200.462 238.18C200.73 238.18 200.879 237.971 200.909 237.732C200.969 237.255 201.028 236.807 201.088 236.33C201.147 235.882 200.462 235.763 200.253 236.091C200.014 236.479 199.955 236.926 200.074 237.374C200.164 237.762 200.7 237.792 200.879 237.493C201.118 237.135 201.118 236.688 200.849 236.36C200.641 236.091 200.104 236.061 200.044 236.479C199.925 237.016 199.955 237.583 200.104 238.12C200.253 238.567 200.819 238.508 200.969 238.12C201.118 237.702 201.207 237.285 201.207 236.867C200.909 236.867 200.611 236.867 200.313 236.867C200.313 237.165 200.313 237.434 200.313 237.732C200.611 237.702 200.909 237.643 201.177 237.613C201.058 237.255 200.969 236.867 200.849 236.509C200.73 235.882 199.865 236.121 200.014 236.688Z" fill="black"/>
<path d="M200.7 238.836C205.499 236.36 210.746 235.047 215.904 233.585C218.438 232.869 220.942 232.093 223.357 231.079C225.682 230.124 227.918 228.931 230.214 227.857C235.312 225.47 240.827 223.919 246.164 222.159C251.709 220.309 257.224 218.46 262.769 216.64C263.306 216.461 263.067 215.596 262.531 215.775C256.986 217.624 251.47 219.474 245.925 221.294C240.678 223.024 235.282 224.575 230.244 226.873C227.62 228.066 225.056 229.468 222.373 230.512C219.929 231.467 217.424 232.213 214.89 232.929C209.912 234.361 204.873 235.673 200.223 238.06C199.746 238.329 200.193 239.104 200.7 238.836Z" fill="black"/>
<path d="M201.118 238.657C221.718 231.527 242.259 224.307 262.8 216.968C264.41 216.401 263.724 213.806 262.084 214.372C241.573 221.711 221.003 228.931 200.402 236.061C198.792 236.628 199.478 239.224 201.118 238.657Z" fill="black"/>
<path d="M198.792 209.838C202.668 210.226 205.977 212.582 209.793 213.328C210.359 213.448 210.598 212.582 210.031 212.463C206.156 211.687 202.787 209.331 198.792 208.943C198.226 208.913 198.226 209.808 198.792 209.838Z" fill="black"/>
<path d="M210.061 212.911C212.416 211.628 214.622 210.106 216.619 208.316C217.037 207.928 216.411 207.302 215.993 207.69C214.026 209.42 211.909 210.912 209.614 212.135C209.107 212.433 209.554 213.209 210.061 212.911Z" fill="black"/>
<path d="M199.716 208.137C201.594 206.795 203.532 205.512 205.529 204.319C206.036 204.02 205.559 203.245 205.082 203.543C203.084 204.736 201.147 205.989 199.268 207.362C198.791 207.72 199.239 208.495 199.716 208.137Z" fill="black"/>
<path d="M205.679 204.468C209.078 205.751 212.477 207.004 215.905 208.286C216.442 208.495 216.68 207.63 216.144 207.421C212.745 206.138 209.346 204.885 205.918 203.603C205.381 203.424 205.143 204.289 205.679 204.468Z" fill="black"/>
<path d="M196.109 213.239C205.083 216.013 213.937 219.206 222.612 222.815C223.149 223.024 223.387 222.159 222.851 221.95C214.175 218.34 205.321 215.148 196.348 212.374C195.781 212.195 195.543 213.06 196.109 213.239Z" fill="black"/>
<path d="M196.973 220.19C202.548 222.875 208.182 225.411 213.877 227.887C214.413 228.126 214.86 227.35 214.324 227.111C208.63 224.665 202.995 222.099 197.42 219.414C196.913 219.176 196.466 219.951 196.973 220.19Z" fill="black"/>
<path d="M197.778 227.857C200.818 229.408 203.859 230.99 206.9 232.541C207.407 232.81 207.854 232.034 207.347 231.765C204.307 230.214 201.266 228.633 198.225 227.081C197.718 226.813 197.271 227.589 197.778 227.857Z" fill="black"/>
<path d="M199.508 228.126C203.712 224.546 208.124 221.264 212.715 218.221C213.192 217.893 212.745 217.117 212.268 217.445C207.617 220.518 203.146 223.889 198.882 227.499C198.435 227.887 199.061 228.513 199.508 228.126Z" fill="black"/>
<path d="M198.404 222.01C200.789 220.339 203.174 218.668 205.559 216.968C206.036 216.64 205.589 215.864 205.112 216.192C202.727 217.863 200.342 219.534 197.957 221.234C197.51 221.562 197.957 222.338 198.404 222.01Z" fill="black"/>
<path d="M199.895 238.299C162.421 231.914 124.946 225.53 87.4721 219.146C83.9542 192.505 80.4065 165.893 76.8887 139.252C117.225 144.682 157.531 150.111 197.868 155.571C198.553 183.137 199.239 210.703 199.895 238.299Z" fill="white" stroke="#2C3C72" stroke-width="3" stroke-miterlimit="10"/>
<path d="M133.115 192.206C129.865 191.192 128.106 188.447 127.838 185.136C127.57 181.765 128.225 178.513 131.356 176.753C134.128 175.201 137.438 175.649 139.912 177.528C142.386 179.408 144.593 183.256 142.595 186.21C142.267 186.687 143.042 187.135 143.37 186.657C145.517 183.495 143.489 179.318 140.866 177.141C138.153 174.903 134.486 174.217 131.296 175.798C127.599 177.618 126.645 181.317 126.944 185.166C127.242 188.895 129.209 191.968 132.876 193.101C133.413 193.251 133.651 192.385 133.115 192.206Z" fill="black"/>
<path d="M133.951 192.535C132.579 190.267 133.027 187.105 135.233 185.524C137.439 183.943 140.599 184.599 142.268 186.628C142.626 187.075 143.252 186.449 142.894 186.001C140.927 183.644 137.23 182.988 134.666 184.808C132.102 186.657 131.566 190.357 133.176 192.982C133.474 193.459 134.249 193.012 133.951 192.535Z" fill="black"/>
<path d="M137.021 193.787C135.619 192.296 135.828 189.521 137.706 188.447C139.555 187.373 142.059 188.596 142.655 190.565C142.834 191.102 143.699 190.894 143.52 190.327C142.745 187.821 139.614 186.329 137.259 187.701C134.904 189.074 134.606 192.534 136.394 194.444C136.782 194.832 137.408 194.205 137.021 193.787Z" fill="black"/>
<path d="M139.317 195.876C140.48 196.293 141.821 195.607 142.268 194.503C142.745 193.4 142.119 192.206 141.076 191.729C140.033 191.252 138.78 191.52 138.214 192.534C137.677 193.519 137.856 194.861 138.751 195.577C139.198 195.935 139.824 195.309 139.377 194.951C138.184 194.026 139.019 191.848 140.599 192.505C141.285 192.773 141.762 193.489 141.434 194.235C141.106 194.951 140.271 195.309 139.556 195.04C139.019 194.832 138.78 195.697 139.317 195.876Z" fill="black"/>
<path d="M197.867 155.541L200.491 237.732" stroke="black" stroke-width="3" stroke-miterlimit="10"/>
<path d="M198.047 155.482C198.852 182.511 199.657 209.54 200.462 236.569" stroke="black" stroke-width="3" stroke-miterlimit="10"/>
<path opacity="0.37" d="M146.44 149.992C148.378 151.007 165.013 160.076 166.176 176.186C166.832 185.076 162.479 191.819 159.737 195.936C144.95 218.191 115.704 222.129 107.773 222.964C119.311 230.632 159.617 255.9 203.68 254.409C213.489 254.081 228.693 253.394 245.179 244.325C257.551 237.523 265.571 228.782 270.162 222.964C267.33 221.204 264.528 219.474 261.695 217.714C240.886 224.844 220.047 231.974 199.238 239.075C198.165 211.509 197.092 183.972 196.018 156.406C179.472 154.318 162.956 152.17 146.44 149.992Z" fill="black"/>
<path opacity="0.5" d="M122.74 224.904C126.616 227.469 132.608 231.139 140.359 234.659C150.019 239.074 178.609 252.141 209.584 244.892C232.092 239.611 249.503 225.142 248.37 222.756C247.655 221.264 238.92 222.815 200.014 238.299C199.388 225.679 198.762 213.03 198.166 200.41C197.093 211.031 195.99 221.652 194.916 232.243C170.858 229.826 146.799 227.35 122.74 224.904Z" fill="black"/>
<path d="M130.76 190.894C128.584 188.507 127.868 185.166 128.941 182.242C130.044 179.289 132.966 176.753 136.454 176.872C139.525 176.991 141.999 179.139 142.894 181.168C143.55 182.719 143.4 184.151 143.4 184.151C143.311 184.957 143.043 185.583 142.834 185.971C141.314 184.211 138.988 183.406 136.812 183.913C134.129 184.539 132.966 186.836 132.847 187.045C131.625 189.551 132.698 191.878 132.847 192.147C132.131 191.699 131.446 191.282 130.76 190.894Z" fill="black"/>
<path d="M281.613 153.125C280.003 154.318 278.274 155.929 276.694 158.047C270.821 165.953 271.626 175.231 272.043 178.244C266.826 177.17 258.061 176.126 247.716 178.513C241.545 179.945 236.596 182.182 232.959 184.211C233.525 184.569 234.301 184.987 235.284 185.255C240.859 186.777 246.732 182.093 246.911 182.421C247.09 182.719 240.352 185.882 240.71 188.626C240.949 190.476 244.258 191.46 247.686 192.505C250.578 193.37 253.321 194.205 256.988 193.787C262.026 193.221 265.514 190.685 267.064 189.372C268.555 190.118 270.761 191.103 273.534 191.968C278.632 193.519 285.667 195.667 290.348 192.743C293.389 190.834 294.313 186.359 296.042 177.469C298.248 166.072 299.351 160.374 296.311 156.764C292.286 151.961 284.207 152.767 281.613 153.125Z" fill="white" stroke="black" stroke-width="3" stroke-miterlimit="10"/>
<path d="M271.029 178.543C274.636 179.885 277.618 182.332 279.675 185.583C279.973 186.061 280.748 185.613 280.45 185.136C278.274 181.675 275.084 179.11 271.268 177.678C270.731 177.499 270.492 178.364 271.029 178.543Z" fill="black"/>
<path d="M251.861 184.45C248.313 185.046 245.451 187.433 244.169 190.774C243.96 191.311 244.825 191.55 245.034 191.013C246.196 187.97 248.879 185.852 252.099 185.315C252.666 185.225 252.427 184.36 251.861 184.45Z" fill="black"/>
<path d="M244.585 191.341C246.433 193.101 248.997 193.698 251.412 192.922C251.949 192.743 251.71 191.878 251.173 192.057C249.057 192.743 246.821 192.266 245.211 190.715C244.794 190.297 244.168 190.924 244.585 191.341Z" fill="black"/>
<path d="M256.004 187.403C254.722 188.179 253.529 189.074 252.396 190.029C251.651 190.685 250.816 191.461 250.995 192.535C251.442 195.369 254.841 194.742 256.689 194.026C257.226 193.817 256.988 192.952 256.451 193.161C255.646 193.459 254.752 193.847 253.887 193.817C252.486 193.758 251.234 192.415 252.426 191.192C253.559 189.999 255.05 189.044 256.451 188.149C256.958 187.88 256.511 187.105 256.004 187.403Z" fill="black"/>
<path d="M280.122 110.552C281.344 111.507 282.924 112.82 284.594 114.52C285.071 114.998 286.293 116.251 287.515 117.802C289.423 120.189 290.646 122.456 291.987 125.23C293.716 128.781 295.446 132.331 297.175 137.641C298.635 142.116 300.871 149.157 301.14 158.524C301.259 162.224 301.02 165.326 300.782 167.504C299.56 166.102 298.337 165.177 297.324 164.581C291.63 161.09 284.713 162.343 278.184 163.536C275.739 163.984 273.712 164.521 272.311 164.909C272.669 161.627 272.997 158.345 273.355 155.064C273.653 152.319 273.921 149.545 274.219 146.77C273.653 145.786 272.878 144.383 272.162 142.623C270.761 139.252 267.958 132.629 269.568 125.201C271.476 116.668 278.184 111.835 280.122 110.552Z" fill="#5B7BEC"/>
<path d="M281.165 112.193C284.147 113.745 286.144 116.43 287.873 119.204C289.662 122.068 291.272 125.022 292.703 128.065C295.625 134.27 297.771 140.833 299.172 147.546C299.291 148.113 300.156 147.874 300.037 147.307C298.606 140.326 296.34 133.554 293.239 127.11C291.719 123.948 290.05 120.875 288.142 117.921C286.442 115.296 284.445 112.85 281.642 111.388C281.106 111.149 280.659 111.925 281.165 112.193Z" fill="black"/>
<path d="M271.864 142.534C273.236 145.338 274.667 148.083 276.157 150.828C276.426 151.335 277.201 150.887 276.932 150.38C275.442 147.635 274.011 144.891 272.639 142.086C272.371 141.549 271.596 141.997 271.864 142.534Z" fill="black"/>
<path d="M273.981 147.665C273.236 153.453 272.491 159.241 271.775 165.028C271.745 165.327 272.103 165.535 272.342 165.446C277.41 163.835 282.687 163.059 287.993 163.238C292.197 163.387 297.772 163.775 300.127 167.892C300.425 168.399 301.17 167.952 300.902 167.445C298.666 163.507 293.777 162.701 289.663 162.433C283.73 162.015 277.768 162.791 272.133 164.581C272.312 164.73 272.521 164.879 272.699 164.998C273.445 159.211 274.19 153.423 274.906 147.635C274.965 147.098 274.071 147.098 273.981 147.665Z" fill="black"/>
<path d="M299.112 147.098C300.155 153.662 301.855 160.613 300.096 167.206C299.947 167.773 300.811 168.012 300.96 167.445C302.749 160.702 301.05 153.602 299.977 146.86C299.887 146.293 299.023 146.532 299.112 147.098Z" fill="black"/>
<path opacity="0.32" d="M277.856 109.449C280.569 114.52 283.282 120.577 285.577 127.528C290.079 141.251 291.272 153.572 291.361 162.791C288.32 162.97 285.279 163.149 282.238 163.328C283.222 170.398 284.236 177.498 285.22 184.569C283.312 183.465 280.39 182.063 276.634 181.228C275.411 180.959 270.91 180.064 266.11 180.87C256.033 182.57 249.951 190.834 248.58 192.803C249.951 193.37 251.71 193.907 253.827 194.026C260.326 194.414 265.066 190.655 266.468 189.462C270.91 191.699 274.785 192.773 277.528 193.31C282.328 194.295 287.933 195.428 291.033 192.445C291.272 192.206 291.808 191.639 292.971 188.746C294.789 184.151 295.743 179.855 296.996 172.069C297.264 170.339 297.651 168.012 298.039 165.237C298.784 165.983 299.559 166.759 300.305 167.504C300.662 166.162 301.11 164.163 301.348 161.717C301.974 155.362 300.752 150.35 299.589 146.263C294.909 129.735 292.106 119.771 282.745 112.551C280.807 111.119 279.019 110.075 277.856 109.449Z" fill="black"/>
<path opacity="0.29" d="M293.628 129.885C295.625 139.61 295.893 147.874 295.744 153.841C295.595 159.39 295.029 163.447 294.433 167.534C292.674 179.855 291.779 186.001 288.381 188.865C281.941 194.295 270.463 190.178 267.721 189.134C270.314 190.864 279.646 196.741 288.768 193.489C289.722 193.131 290.766 192.684 291.779 192.027C292.853 190.208 294.284 187.403 295.208 183.734C295.744 181.556 295.893 179.975 296.102 178.125C296.43 175.142 296.997 170.786 297.951 165.327C298.815 166.072 299.709 166.818 300.574 167.564C300.872 166.043 301.26 163.716 301.349 160.852C301.617 153.93 300.097 148.68 298.338 142.683C297.384 139.401 295.893 134.986 293.628 129.885Z" fill="black"/>
<path d="M211.672 51.572C211.97 54.7641 212.507 59.2392 213.699 64.5197C214.474 67.9505 214.951 70.1283 215.965 72.8432C217.485 76.9303 220.377 84.7467 227.92 89.8481C229.738 91.1012 232.749 92.7718 236.983 93.7563C237.668 93.816 238.354 93.9055 239.04 93.9652C239.278 95.2182 239.576 97.0678 239.875 99.3053C240.59 105.063 240.232 106.823 241.723 108.375C243.542 110.254 246.433 110.075 247.059 110.016C252.038 109.687 254.542 104.735 254.662 104.466C253.857 103.005 253.052 101.215 252.396 99.1263C250.965 94.5022 250.935 90.3852 251.174 87.5808C253.469 84.2693 256.003 81.7335 258.567 79.7645C259.551 79.0187 260.386 78.0043 261.846 77.4972C263.933 76.7812 265.007 77.4972 266.557 77.0198C269.121 76.2143 270.224 72.9028 270.701 71.5305C272.519 66.1008 270.283 60.7308 268.852 57.5386C267.57 54.615 264.231 47.3655 256.093 41.6972C247.715 35.8498 230.961 29.3461 219.87 37.789C217.962 39.2508 213.61 43.159 211.672 51.572Z" fill="white"/>
<path d="M212.925 63.8634C211.017 63.5352 206.187 62.4015 203.057 58.2547C198.287 51.9599 200.851 43.159 203.504 38.505C207.678 31.1959 215.28 28.66 224.82 25.4679C230.484 23.5884 235.88 21.7984 243.214 22.0967C247.269 22.2757 261.012 22.8724 269.24 33.1052C274.13 39.1614 274.666 45.665 275.74 58.4934C276.246 64.3705 275.859 67.5627 274.845 70.6057C274.1 72.8134 271.685 79.8839 264.739 82.718C261.102 84.2097 257.733 83.9114 255.884 83.613C257.554 81.1369 259.223 78.6905 260.923 76.2144C261.877 76.274 265.275 76.3337 267.869 73.9769C271.417 70.725 272.043 64.2512 269.449 62.5209C267.541 61.238 263.755 62.491 260.476 65.4445C260.177 63.565 259.7 61.5065 258.896 59.3884C255.139 49.2749 246.971 43.7259 242.976 41.4287C241.396 43.4574 236.387 49.3942 227.503 51.751C220.467 53.6007 214.624 52.288 212.03 51.5124C212.328 55.6294 212.627 59.7464 212.925 63.8634Z" fill="black"/>
<path d="M211.434 52.3477C212.656 61.5662 213.938 71.1427 218.44 79.4364C222.137 86.2384 228.099 92.0559 235.761 93.9951C236.327 94.1442 236.566 93.279 235.999 93.1299C228.427 91.1907 222.584 85.3434 219.006 78.5712C214.743 70.5162 213.521 61.2679 212.328 52.3477C212.239 51.7809 211.345 51.7809 211.434 52.3477Z" fill="black"/>
<path d="M235.762 94.1144C241.158 94.1144 246.822 91.2206 251.056 88.1179C255.319 84.9854 258.807 80.9579 261.311 76.3039C261.579 75.7967 260.804 75.3492 260.536 75.8564C258.121 80.3911 254.752 84.3291 250.608 87.3422C246.464 90.3852 240.979 93.2194 235.762 93.2194C235.165 93.2194 235.165 94.1144 235.762 94.1144Z" fill="black"/>
<path d="M251.026 87.4019C250.429 93.4283 251.592 99.4546 254.335 104.854C254.603 105.362 255.378 104.914 255.11 104.407C252.427 99.1265 251.353 93.2791 251.92 87.4019C251.98 86.8351 251.085 86.8351 251.026 87.4019Z" fill="black"/>
<path d="M238.056 93.9652C239.04 97.3662 239.845 100.827 240.441 104.317C240.829 106.644 240.978 109.27 243.572 110.135C247.447 111.448 253.171 109.121 254.662 105.272C254.87 104.735 254.006 104.496 253.797 105.033C252.962 107.211 250.876 108.405 248.729 109.031C246.94 109.538 244.227 110.075 242.707 108.613C241.813 107.748 241.693 106.376 241.515 105.212C241.306 103.989 241.097 102.766 240.859 101.543C240.322 98.9175 239.696 96.2922 238.951 93.7265C238.772 93.1895 237.907 93.4282 238.056 93.9652Z" fill="black"/>
<path d="M239.339 97.6646C244.646 96.9784 248.134 92.9211 250.697 88.5654C250.996 88.0582 250.22 87.6107 249.922 88.1179C247.567 92.1752 244.288 96.1431 239.339 96.7696C238.772 96.8591 238.772 97.7541 239.339 97.6646Z" fill="black"/>
<path d="M239.131 94.6215C243.274 94.1442 247.001 92.205 249.774 89.0726C250.161 88.6549 249.535 87.9986 249.148 88.4461C246.554 91.3996 243.036 93.279 239.131 93.7265C238.594 93.7862 238.564 94.6812 239.131 94.6215Z" fill="black"/>
<path d="M239.279 93.9653C242.618 93.4879 245.629 92.1156 248.193 89.9378C248.64 89.5499 247.984 88.9234 247.567 89.3112C245.122 91.3996 242.231 92.6824 239.041 93.1299C238.474 93.1896 238.713 94.0548 239.279 93.9653Z" fill="black"/>
<path d="M239.099 94.711C239.248 95.427 239.218 96.859 240.113 97.0977C240.977 97.3363 242.289 96.322 242.975 95.9043C245.33 94.4723 247.298 92.5332 248.848 90.2658C249.176 89.7885 248.401 89.341 248.073 89.8183C246.97 91.4592 245.628 92.921 244.048 94.1143C243.303 94.6812 242.528 95.1585 241.723 95.606C241.395 95.785 240.649 96.2922 240.321 96.0833C240.113 95.964 240.023 94.6812 239.994 94.4723C239.844 93.9055 238.98 94.1442 239.099 94.711Z" fill="black"/>
<path d="M239.518 95.5464C242.081 94.5022 244.496 93.1896 246.762 91.6084C247.239 91.2802 246.792 90.5045 246.315 90.8327C244.109 92.3841 241.783 93.6669 239.279 94.6812C238.742 94.8901 238.981 95.7552 239.518 95.5464Z" fill="black"/>
<path d="M239.965 96.4413C242.827 95.4269 245.331 93.8458 247.418 91.6381C247.806 91.2205 247.179 90.594 246.792 91.0116C244.794 93.0701 242.439 94.6214 239.726 95.5761C239.19 95.7849 239.428 96.6501 239.965 96.4413Z" fill="black"/>
<path d="M240.441 95.964C242.558 95.0392 244.496 93.7862 246.165 92.1752C246.583 91.7873 245.957 91.1608 245.539 91.5487C243.9 93.1 242.051 94.2933 239.994 95.1883C239.458 95.427 239.905 96.2027 240.441 95.964Z" fill="black"/>
<path d="M216.086 75.021C211.226 73.2907 209.616 66.9362 210.093 62.3418C210.6 57.3 215.132 51.8106 220.677 54.1675C223.33 55.3012 224.314 58.2248 225.029 60.8203C225.775 63.565 226.103 66.608 225.387 69.4123C224.761 71.8885 223.241 74.2453 220.856 75.3193C218.471 76.3933 215.638 75.7967 214.029 73.7382C213.671 73.2907 213.045 73.9172 213.402 74.3647C216.115 77.8552 221.213 77.169 223.956 74.0962C227.444 70.188 227.086 64.2512 225.596 59.5673C224.91 57.3895 224.016 55.1222 222.018 53.8692C220.289 52.7653 218.083 52.4968 216.145 53.004C211.614 54.2272 209.258 59.0303 209.169 63.4158C209.08 68.219 210.958 74.1558 215.907 75.8862C216.384 76.0652 216.622 75.2 216.086 75.021Z" fill="black"/>
<path d="M226.4 66.1008C229.321 64.3406 232.869 64.1616 235.91 65.6831C236.417 65.9516 236.864 65.176 236.357 64.9075C233.018 63.2368 229.143 63.386 225.923 65.3251C225.476 65.6235 225.923 66.3991 226.4 66.1008Z" fill="black"/>
<path d="M240.649 72.4553C237.281 69.2035 235.879 64.1617 237.191 59.627C238.563 54.9133 243.273 50.856 248.341 52.5267C253.946 54.3763 254.244 62.4015 252.783 67.1152C251.919 69.8897 250.189 72.6642 247.327 73.6785C244.465 74.6928 241.991 73.1713 239.695 71.5603C239.218 71.2322 238.771 72.0078 239.248 72.336C241.126 73.6785 243.154 75.021 245.539 74.9315C247.804 74.842 249.861 73.589 251.263 71.8885C254.423 68.0698 255.049 62.2523 253.737 57.5983C252.545 53.362 249.027 50.6173 244.525 51.3632C240.232 52.0493 237.072 55.9277 236.118 59.985C235.015 64.6688 236.505 69.7405 239.964 73.0818C240.441 73.4995 241.067 72.8432 240.649 72.4553Z" fill="black"/>
<path d="M218.798 62.6401C218.5 64.5196 218.828 66.3395 219.842 67.9504C220.05 68.2786 220.527 68.2189 220.646 67.8311C221.362 65.7726 220.348 63.744 219.335 61.9838C219.126 61.596 218.5 61.775 218.5 62.2225C218.53 63.8036 218.858 65.355 219.454 66.8168C219.663 67.3538 220.527 67.1151 220.319 66.5781C219.752 65.176 219.424 63.744 219.394 62.2225C219.126 62.312 218.828 62.3716 218.56 62.4611C219.484 64.0423 220.438 65.7726 219.782 67.6223C220.05 67.5924 220.319 67.5626 220.587 67.5029C219.692 66.1008 219.365 64.5196 219.633 62.8788C219.752 62.312 218.888 62.0733 218.798 62.6401Z" fill="black"/>
<path d="M245.181 61.8048C245.181 61.417 245.151 61.3275 244.972 60.9993C244.764 60.6115 244.137 60.7905 244.137 61.238C244.167 63.0877 244.316 65.0865 245.747 66.3992C246.045 66.6677 246.463 66.4588 246.522 66.071C246.761 63.8633 246.105 61.8048 244.734 60.0745C244.436 59.7165 243.899 60.1043 243.988 60.522C244.346 61.9838 244.793 63.4158 245.33 64.7882C245.539 65.3252 246.403 65.0865 246.195 64.5495C245.628 63.1473 245.181 61.7452 244.853 60.2833C244.614 60.4325 244.346 60.5817 244.108 60.7308C245.33 62.2822 245.837 64.1318 245.628 66.1008C245.896 65.9815 246.135 65.892 246.403 65.7727C245.121 64.6092 245.062 62.849 245.032 61.238C244.764 61.3275 244.465 61.3872 244.197 61.4767C244.227 61.596 244.257 61.7153 244.287 61.8347C244.287 62.3717 245.181 62.3717 245.181 61.8048Z" fill="black"/>
<path d="M229.38 67.682C228.784 69.472 228.277 71.2918 227.949 73.1415C227.77 74.126 227.144 75.9757 227.592 76.9602C228.486 78.959 232.451 77.7358 233.822 77.0795C234.329 76.8408 233.882 76.0652 233.375 76.3038C232.272 76.8408 231.08 77.1093 229.857 77.0198C229.142 76.9602 228.575 76.8408 228.426 76.0353C228.337 75.5878 228.635 74.4243 228.724 73.9172C229.082 71.8587 229.619 69.8598 230.275 67.8908C230.424 67.3837 229.559 67.145 229.38 67.682Z" fill="black"/>
<path d="M233.882 84.8959C236.118 84.5976 238.056 83.1655 239.04 81.107C239.278 80.5999 238.503 80.1225 238.264 80.6595C237.37 82.539 235.701 83.7622 233.644 84.0307C233.077 84.1202 233.345 84.9854 233.882 84.8959Z" fill="black"/>
<path d="M216.92 60.0745C217.486 59.3883 218.53 59.269 219.245 59.8657C219.692 60.2535 220.319 59.5972 219.871 59.2392C218.828 58.3442 217.218 58.4038 216.294 59.448C215.906 59.8657 216.532 60.4922 216.92 60.0745Z" fill="black"/>
<path d="M242.499 58.4038C243.423 57.5983 244.824 57.5983 245.748 58.374C246.195 58.732 246.821 58.1055 246.374 57.7475C245.062 56.6138 243.154 56.6436 241.843 57.7773C241.425 58.1652 242.081 58.7917 242.499 58.4038Z" fill="black"/>
<path d="M254.245 62.5209C257.465 61.3872 260.774 60.7011 264.202 60.5221C264.769 60.4922 264.769 59.5972 264.202 59.6271C260.714 59.8061 257.316 60.4922 254.006 61.6557C253.47 61.8646 253.678 62.7297 254.245 62.5209Z" fill="black"/>
<path opacity="0.4" d="M258.686 25.3485C260.475 27.6457 267.361 37.073 266.079 50.0207C265.364 57.2403 262.383 62.5507 260.504 65.355C261.578 64.5197 262.502 63.9528 263.188 63.565C265.006 62.5507 266.169 61.9242 267.659 62.0137C268.107 62.0435 269.18 62.133 269.955 62.7595C272.221 64.6688 271.446 71.441 267.421 74.6033C265.215 76.3337 262.621 76.5127 261.309 76.4828C259.61 78.8993 257.881 81.3158 256.182 83.7622C257.315 83.9412 259.044 84.0903 261.041 83.792C261.906 83.6727 265.364 83.0462 268.643 80.4208C271.863 77.8253 273.175 74.663 274.039 72.515C276.424 66.5483 275.947 61.2977 275.113 51.8405C274.755 47.634 274.546 45.486 273.711 42.6518C272.817 39.579 271.416 35.0443 267.421 30.987C264.559 28.0037 261.339 26.333 258.686 25.3485Z" fill="black"/>
<path opacity="0.48" d="M229.889 50.856C232.87 48.2008 236.209 44.7998 239.429 40.5635C241.426 37.9382 243.096 35.4024 244.467 33.0455C243.96 35.7305 243.453 38.4155 242.976 41.1005C241.814 42.7712 239.876 45.1578 236.865 47.3357C234.211 49.2152 231.707 50.2593 229.889 50.856Z" fill="black"/>
<path opacity="0.27" d="M251.085 47.455C253.351 55.0028 253.529 61.3275 253.321 65.5041C253.172 68.6068 252.337 84.866 243.781 90.4746C242.946 91.0116 240.829 92.2646 240.919 92.4436C241.038 92.6525 245.003 90.8923 247.179 89.699C250.608 87.8493 255.885 84.1201 260.774 76.2441C261.579 76.3336 265.514 76.6021 268.346 73.8873C271.775 70.6355 272.371 64.2511 269.658 62.3716C267.72 61.0291 264.024 62.1628 260.774 64.8478C260.446 63.4755 260.029 62.0435 259.462 60.522C257.226 54.615 253.857 50.319 251.085 47.455Z" fill="black"/>
<path opacity="0.36" d="M243.9 92.205C244.676 94.5917 245.451 96.9784 246.226 99.3949C247.299 102.677 248.342 105.988 249.386 109.27C249.982 109.15 251.443 108.733 252.725 107.42C254.007 106.107 254.424 104.675 254.573 104.079C253.411 101.782 252.039 98.291 251.562 93.8757C251.324 91.5785 251.383 89.5499 251.562 87.8494C249.028 89.3112 246.464 90.773 243.9 92.205Z" fill="black"/>
<path opacity="0.43" d="M229.023 68.7262C227.532 71.9184 226.041 75.0807 224.551 78.2729C226.995 78.2132 229.41 78.1834 231.855 78.1237C230.424 77.6762 228.963 77.2287 227.532 76.7812C228.009 74.0962 228.516 71.4112 229.023 68.7262Z" fill="black"/>
</g>
<defs>
<clipPath id="clip0">
<rect width="393" height="290" fill="white"/>
</clipPath>
</defs>
</svg>
