<svg width="393" height="290" fill="none" xmlns="http://www.w3.org/2000/svg"><g clip-path="url(#clip0)"><path d="M184.126 142.802c-2.445 1.82-5.397 4.744-6.47 8.921-.775 3.102-.03 4.922-.298 8.92-.179 2.774-.894 6.682-3.19 11.336-5.217-1.074-13.982-2.118-24.327.269a56.447 56.447 0 00-14.757 5.698 8.522 8.522 0 002.325 1.044c5.575 1.522 11.448-3.162 11.627-2.834.179.298-6.559 3.461-6.201 6.205.239 1.85 3.548 2.835 6.976 3.879 2.892.865 5.635 1.7 9.302 1.283 5.038-.567 8.526-3.103 10.076-4.416a43.44 43.44 0 006.47 2.596c5.098 1.551 12.133 3.699 16.814.775 3.041-1.909 3.965-6.384 5.694-15.274 2.087-10.83 3.071-16.259.269-20.705-3.667-5.936-11.21-7.309-14.31-7.697z" fill="#fff" stroke="#000" stroke-width="3" stroke-miterlimit="10"/><path d="M173.213 172.307c3.608 1.343 6.589 3.789 8.646 7.041.298.477 1.073.03.775-.447-2.176-3.461-5.366-6.027-9.182-7.459-.567-.209-.775.657-.239.865zm-19.198 5.878c-3.548.596-6.41 2.983-7.692 6.324-.208.537.656.776.865.239 1.162-3.043 3.846-5.161 7.065-5.698.567-.09.328-.955-.238-.865zm4.174 2.983c-1.282.776-2.474 1.671-3.607 2.625-.745.657-1.58 1.432-1.401 2.506.447 2.834 3.846 2.208 5.694 1.492.537-.209.298-1.074-.239-.865-.805.298-1.699.686-2.563.656-1.402-.06-2.654-1.402-1.461-2.625 1.133-1.194 2.623-2.148 4.024-3.043.477-.299.03-1.074-.447-.746z" fill="#000"/><path d="M211.939 106.078c-1.52.507-3.458 1.282-5.634 2.356a37.063 37.063 0 00-3.906 2.208c-2.623 1.671-4.531 3.431-6.707 5.639-2.773 2.834-5.575 5.668-8.914 10.203-2.803 3.818-7.155 9.815-10.286 18.615a59.17 59.17 0 00-2.385 8.652 15.25 15.25 0 014.293-1.7c6.708-1.522 13.148 1.879 19.259 5.071 2.296 1.194 4.114 2.357 5.367 3.163.655-3.222 1.311-6.474 1.967-9.696.567-2.715 1.103-5.46 1.67-8.175a36.848 36.848 0 003.309-3.281c2.415-2.745 7.214-8.204 7.87-15.782.805-8.741-4.382-15.424-5.903-17.273z" fill="#5B7BEC"/><path d="M210.182 106.436c-3.19.477-5.933 2.177-8.407 4.146-2.862 2.238-5.545 4.714-8.049 7.339a86.3 86.3 0 00-12.671 16.856c-.298.507.477.955.775.448 3.399-5.907 7.454-11.397 12.164-16.319a91.363 91.363 0 017.244-6.772c2.713-2.238 5.605-4.326 9.183-4.863.566-.06.328-.925-.239-.835zm-1.251 32.578a200.09 200.09 0 01-6.768 6.533c-.417.388.209 1.014.626.627a200.122 200.122 0 006.768-6.534c.387-.418-.239-1.044-.626-.626z" fill="#000"/><path d="M205.83 143.101c-1.044 5.728-2.057 11.486-3.101 17.213.209-.089.448-.179.656-.268a51.012 51.012 0 00-15.622-7.339c-4.382-1.193-9.957-2.357-13.713.955-.418.388.208 1.014.626.626 3.816-3.401 9.987-1.611 14.31-.298 4.978 1.521 9.659 3.848 13.922 6.802.239.149.596 0 .656-.269 1.044-5.728 2.057-11.485 3.101-17.213.119-.537-.746-.776-.835-.209z" fill="#000"/><path d="M181.263 134.36c-3.101 6.056-6.976 12.291-7.245 19.302-.03.567.865.567.895 0 .268-6.832 4.084-12.918 7.125-18.855.238-.507-.537-.955-.775-.447z" fill="#000"/><path opacity=".4" d="M207.767 123.083c-5.336 10.62-8.228 19.57-9.927 25.835-2.475 9.189-3.34 16.438-9.749 22.465-1.044.984-4.114 3.818-8.944 5.579-10.136 3.669-17.649-1.283-24.029 3.967-.715.597-2.832 2.089-2.594 3.789.239 1.611 2.445 2.447 2.773 2.596 2.624 1.014 5.336-.03 8.735-1.402 3.846-1.552 3.429-2.089 5.158-2.387 3.637-.627 5.306 1.671 10.136 3.192 2.057.627 8.139 2.536 12.521 0 3.22-1.879 4.204-5.4 5.754-11.337 1.073-4.027 2.176-9.904 1.997-17.303l3.578 2.775c1.55-12.59 3.071-25.18 4.591-37.769z" fill="#000"/><path opacity=".38" d="M205.978 136c-4.084 7.727-6.081 14.261-7.155 18.676-2.146 8.861-1.46 13.037-4.382 19.272-3.13 6.773-8.199 11.069-11.716 13.515 1.967.447 6.707 1.283 10.136-1.402 2.415-1.88 3.041-4.565 3.965-8.95a503.748 503.748 0 003.577-18.288l2.773 1.79c.954-8.174 1.878-16.408 2.802-24.613z" fill="#000"/><path d="M211.314 105.481a2136.735 2136.735 0 00-3.13 21.182c-3.935 27.536-7.334 54.595-10.196 81.206.06.895.298 2.327 1.193 3.759.894 1.462 2.087 2.208 2.653 2.595 5.426 3.879 8.139 5.848 10.882 7.16 13.147 6.355 27.695 5.609 27.695 5.609 3.071-.149 9.183-.537 15.741-3.162.358-.149 2.862-1.313 7.871-3.67 4.531-2.118 5.336-2.536 6.44-3.55 2.623-2.416 3.637-5.4 4.322-7.518 1.461-4.505 1.312-8.323 1.252-9.248 0 0-.298-7.429-.506-50.806-.03-8.831.834-21.809 5.485-37.829-4.829-2.357-9.361-4.535-14.817-7.16-3.756-1.82-7.244-3.491-12.253-4.087-1.431-.18-2.713-.239-4.621-.21-7.751.06-14.131 1.254-16.873 1.731-5.337.865-12.552 2.178-21.138 3.998z" fill="#5B7BEC"/><path d="M211.076 106.525a328.892 328.892 0 0127.934-4.714c.417-.059.656-.596.238-.835-.119-.06-.238-.149-.387-.209-.507-.298-.954.478-.447.776.119.06.238.149.387.209.09-.269.149-.567.239-.836a320.882 320.882 0 00-28.173 4.744c-.596.119-.358.984.209.865zm-2.773 15.633a2772.578 2772.578 0 00-8.944 70.287c-.328 2.954-.656 5.877-.984 8.831-.268 2.565-1.014 5.459-.686 8.025.298 2.267 2.087 3.699 3.727 5.072a60.08 60.08 0 005.634 4.176c8.08 5.221 17.53 8.354 27.13 8.92 11.418.657 22.896-2.267 32.644-8.234.477-.298.03-1.074-.447-.775-17.053 10.412-38.756 10.829-56.137.954a56.2 56.2 0 01-5.783-3.759c-1.878-1.402-4.919-3.311-5.694-5.608-.358-1.104-.179-2.327-.06-3.491.149-1.462.328-2.953.477-4.415a767.6 767.6 0 01.924-8.234c1.282-11.188 2.594-22.345 4.025-33.503 1.61-12.679 3.279-25.358 5.068-38.008.06-.566-.805-.805-.894-.238zm43.913-22.465c5.247 1.044 10.167 3.461 15.056 5.519 4.8 2.029 10.136 3.67 14.369 6.773.477.328.925-.448.448-.776-4.144-3.043-9.362-4.654-14.042-6.623-5.068-2.118-10.166-4.654-15.592-5.758-.566-.12-.805.746-.239.865z" fill="#000"/><path d="M275.589 150.291c-.477 12.559-.954 25.119-.507 37.649.209 6.086 1.163 12.411.03 18.467-.954 4.982-3.757 9.964-8.735 11.814-.537.209-.298 1.074.238.865 7.93-2.953 9.987-11.993 9.868-19.571-.059-5.131-.507-10.262-.626-15.423-.119-5.251-.06-10.472.03-15.722.119-6.027.358-12.053.566-18.079.06-.597-.834-.597-.864 0z" fill="#000"/><path opacity=".38" d="M271.296 143.22a65.54 65.54 0 01-7.87 17.274c-17.083 26.283-48.356 31.533-56.346 32.637a2365.935 2365.935 0 0132.555 3.67 2717.924 2717.924 0 0135.835 4.505c-.745-13.336-.745-24.315-.567-32.161.328-16.229 1.491-29.356-.626-29.773-.506-.12-1.401.447-2.981 3.848z" fill="#000"/><path opacity=".42" d="M274.964 152.976a124.423 124.423 0 01-5.128 12.798c-3.399 7.309-6.648 14.35-10.852 18.676-11.746 12.082-34.702 6.861-34.761 7.697-.03.477 8.377 1.82 50.83 5.728 0-14.977-.03-29.923-.089-44.899z" fill="#000"/><path d="M328.447 275.978A1275625.086 1275625.086 0 00.182 232.153c32.287-18.735 64.603-37.471 96.89-56.206 98.709 9.726 197.448 19.481 296.158 29.207-21.614 23.598-43.199 47.226-64.783 70.824z" fill="#fff" stroke="#fff" stroke-width="3" stroke-miterlimit="10"/><path d="M289.424 215.118c-11.18 8.741-22.121 17.751-32.883 26.999-.448.388.208 1.015.626.627a945.824 945.824 0 0132.883-26.999c.447-.328-.179-.985-.626-.627z" fill="#000"/><path d="M256.957 242.595c3.518.746 7.095.746 10.702.775 4.055.06 7.871.478 11.746 1.611 7.275 2.119 14.4 3.521 22.002 3.342.567 0 .567-.895 0-.895-3.905.089-7.811-.149-11.686-.776-3.638-.597-7.096-1.67-10.643-2.655-3.399-.955-6.798-1.402-10.345-1.462-3.876-.089-7.752.03-11.568-.775-.536-.15-.775.716-.208.835zm33.122-26.82a224.291 224.291 0 0135.03 5.638c.566.149.805-.716.238-.865-11.567-2.834-23.373-4.714-35.268-5.668-.566-.06-.566.835 0 .895z" fill="#000"/><path d="M302.094 247.786c8.317-8.234 16.307-16.826 23.88-25.776.357-.448-.269-1.074-.626-.627-7.573 8.92-15.563 17.512-23.88 25.776-.418.418.208 1.044.626.627zm-34.732-8.741c10.256-1.253 20.631.03 30.26 3.789.537.208.775-.657.239-.866a63.296 63.296 0 00-30.499-3.818c-.566.059-.566.954 0 .895zm15.531-3.282c6.32.477 12.551 1.462 18.722 2.924.567.149.805-.716.239-.865a119.314 119.314 0 00-18.961-2.954c-.596-.03-.566.865 0 .895zm-4.74-6.593a114.944 114.944 0 0128.113 4.117c.567.149.805-.716.239-.865a116.687 116.687 0 00-28.352-4.147c-.566 0-.566.895 0 .895zm11.806-2.745a220.753 220.753 0 0115.264 2.685c.566.12.805-.746.238-.865a220.648 220.648 0 00-15.264-2.685c-.566-.09-.805.776-.238.865zm-6.529 20.018a811.264 811.264 0 01-5.486 8.383c-.179.269.06.717.388.687a125.399 125.399 0 0143.973 2.804c.566.149.805-.716.239-.865a126.771 126.771 0 00-44.212-2.864c.119.239.268.447.387.686 1.819-2.804 3.637-5.609 5.486-8.383.328-.478-.448-.925-.775-.448z" fill="#000"/><path d="M319.474 229.498l17.232-.358a6.631 6.631 0 01-.418-.567c-3.965 9.457-7.96 18.885-11.925 28.342-.209.537.656.775.865.238 3.965-9.457 7.96-18.884 11.925-28.341.119-.269-.179-.567-.418-.567l-17.231.358c-.597.03-.597.925-.03.895zm-21.792 22.226c1.52-.299 3.04-.358 4.591-.239.566.03.566-.865 0-.895-1.64-.119-3.22-.03-4.83.269-.566.089-.328.954.239.865zm8.465.089c4.681.179 9.362.627 14.012 1.343.567.089.805-.776.239-.865a119.946 119.946 0 00-14.251-1.373c-.566-.03-.566.866 0 .895zm.268-5.608h3.339c.567 0 .567-.895 0-.895h-3.339c-.566 0-.566.895 0 .895z" fill="#000"/><path d="M313.362 246.115c3.667.09 7.304.448 10.942 1.044.566.09.804-.775.238-.865a87.41 87.41 0 00-11.18-1.074c-.566 0-.566.895 0 .895zm-.566-5.101c4.174.059 8.318.298 12.462.775.566.06.566-.835 0-.895a115.825 115.825 0 00-12.462-.775c-.567-.03-.567.865 0 .895zm-27.994 9.904c1.997.06 3.965-.179 5.932-.656.567-.149.328-1.014-.238-.865a20.344 20.344 0 01-5.694.626c-.567 0-.567.895 0 .895zm14.161-46.749c-.775.955-1.67 2.894-.746 4.058.567.716 1.64.567 2.445.597 1.461.059 2.922.149 4.382.208 5.933.269 11.836.567 17.769.836.566.03.566-.865 0-.895l-13.118-.627c-2.146-.089-4.263-.209-6.41-.298-1.043-.06-2.146 0-3.19-.149-.775-.12-1.341-.149-1.311-1.104.03-.746.358-1.432.805-1.999.357-.447-.269-1.104-.626-.627z" fill="#000"/><path d="M299.769 205.303c5.008.179 10.017.328 15.025.507 2.445.09 4.919.149 7.364.239 2.206.089 4.531.239 6.111 1.939.388.418 1.014-.209.626-.626-1.192-1.313-2.802-1.82-4.531-2.059-2.564-.328-5.217-.268-7.811-.358-5.605-.179-11.209-.388-16.784-.567-.567.03-.567.925 0 .925z" fill="#000"/><path d="M322.514 209.897c2.295.03 4.471-.686 6.32-2.058.447-.328 0-1.104-.447-.776-1.73 1.283-3.697 1.969-5.873 1.939-.597 0-.597.895 0 .895z" fill="#000"/><path d="M323.23 205.303a3.445 3.445 0 00-1.401 3.819c.149.537 1.014.328.865-.239-.298-1.044.059-2.207.984-2.834.477-.298.029-1.074-.448-.746z" fill="#000"/><path d="M201.504 236.24L92.838 217.624c22.002-8.89 44.003-17.751 66.005-26.641 34.403 7.667 68.807 15.334 103.181 23.002-20.153 7.428-40.336 14.827-60.52 22.255z" fill="#fff" stroke="#2C3C72" stroke-width="3" stroke-miterlimit="10"/><path d="M200.014 236.688c.12.358.209.746.328 1.104.149.477.865.388.865-.12v-.865c0-.567-.894-.567-.894 0 0 .358-.06.686-.209 1.015h.865a2.183 2.183 0 01-.06-1.164c-.268.03-.537.06-.805.119.089.09.089.15.03.239.268.03.536.06.805.119a.637.637 0 01.089-.566c-.268-.09-.566-.15-.835-.239-.059.477-.119.925-.179 1.402-.029.239.239.448.448.448.268 0 .417-.209.447-.448l.179-1.402c.059-.448-.626-.567-.835-.239a1.61 1.61 0 00-.179 1.283c.09.388.626.418.805.119.239-.358.239-.805-.03-1.133-.208-.269-.745-.299-.805.119a3.406 3.406 0 00.06 1.641c.149.447.715.388.865 0a3.73 3.73 0 00.238-1.253h-.894v.865c.298-.03.596-.089.864-.119-.119-.358-.208-.746-.328-1.104-.119-.627-.984-.388-.835.179z" fill="#000"/><path d="M200.7 238.836c4.799-2.476 10.046-3.789 15.204-5.251 2.534-.716 5.038-1.492 7.453-2.506 2.325-.955 4.561-2.148 6.857-3.222 5.098-2.387 10.613-3.938 15.95-5.698 5.545-1.85 11.06-3.699 16.605-5.519.537-.179.298-1.044-.238-.865-5.545 1.849-11.061 3.699-16.606 5.519-5.247 1.73-10.643 3.281-15.681 5.579-2.624 1.193-5.188 2.595-7.871 3.639-2.444.955-4.949 1.701-7.483 2.417-4.978 1.432-10.017 2.744-14.667 5.131-.477.269-.03 1.044.477.776z" fill="#000"/><path d="M201.118 238.657a6574.94 6574.94 0 0061.682-21.689c1.61-.567.924-3.162-.716-2.596a6277.123 6277.123 0 01-61.682 21.689c-1.61.567-.924 3.163.716 2.596zm-2.326-28.819c3.876.388 7.185 2.744 11.001 3.49.566.12.805-.746.238-.865-3.875-.776-7.244-3.132-11.239-3.52-.566-.03-.566.865 0 .895z" fill="#000"/><path d="M210.061 212.911c2.355-1.283 4.561-2.805 6.558-4.595.418-.388-.208-1.014-.626-.626a33.502 33.502 0 01-6.379 4.445c-.507.298-.06 1.074.447.776zm-10.345-4.774a84.95 84.95 0 015.813-3.818c.507-.299.03-1.074-.447-.776a74.789 74.789 0 00-5.814 3.819c-.477.358-.029 1.133.448.775z" fill="#000"/><path d="M205.679 204.468c3.399 1.283 6.798 2.536 10.226 3.818.537.209.775-.656.239-.865-3.399-1.283-6.798-2.536-10.226-3.818-.537-.179-.775.686-.239.865zm-9.57 8.771a298.62 298.62 0 0126.503 9.576c.537.209.775-.656.239-.865a298.532 298.532 0 00-26.503-9.576c-.567-.179-.805.686-.239.865zm.864 6.951c5.575 2.685 11.209 5.221 16.904 7.697.536.239.983-.537.447-.776a431.028 431.028 0 01-16.904-7.697c-.507-.238-.954.537-.447.776zm.805 7.667c3.04 1.551 6.081 3.133 9.122 4.684.507.269.954-.507.447-.776-3.04-1.551-6.081-3.132-9.122-4.684-.507-.268-.954.508-.447.776z" fill="#000"/><path d="M199.508 228.126c4.204-3.58 8.616-6.862 13.207-9.905.477-.328.03-1.104-.447-.776a141.29 141.29 0 00-13.386 10.054c-.447.388.179 1.014.626.627zm-1.104-6.116c2.385-1.671 4.77-3.342 7.155-5.042.477-.328.03-1.104-.447-.776-2.385 1.671-4.77 3.342-7.155 5.042-.447.328 0 1.104.447.776z" fill="#000"/><path d="M199.895 238.299L87.472 219.146c-3.518-26.641-7.066-53.253-10.583-79.894 40.336 5.43 80.642 10.859 120.979 16.319.685 27.566 1.371 55.132 2.027 82.728z" fill="#fff" stroke="#2C3C72" stroke-width="3" stroke-miterlimit="10"/><path d="M133.115 192.206c-3.25-1.014-5.009-3.759-5.277-7.07-.268-3.371.387-6.623 3.518-8.383 2.772-1.552 6.082-1.104 8.556.775 2.474 1.88 4.681 5.728 2.683 8.682-.328.477.447.925.775.447 2.147-3.162.119-7.339-2.504-9.516-2.713-2.238-6.38-2.924-9.57-1.343-3.697 1.82-4.651 5.519-4.352 9.368.298 3.729 2.265 6.802 5.932 7.935.537.15.775-.716.239-.895z" fill="#000"/><path d="M133.951 192.535c-1.372-2.268-.924-5.43 1.282-7.011 2.206-1.581 5.366-.925 7.035 1.104.358.447.984-.179.626-.627-1.967-2.357-5.664-3.013-8.228-1.193-2.564 1.849-3.1 5.549-1.49 8.174.298.477 1.073.03.775-.447z" fill="#000"/><path d="M137.021 193.787c-1.402-1.491-1.193-4.266.685-5.34 1.849-1.074 4.353.149 4.949 2.118.179.537 1.044.329.865-.238-.775-2.506-3.906-3.998-6.261-2.626-2.355 1.373-2.653 4.833-.865 6.743.388.388 1.014-.239.627-.657z" fill="#000"/><path d="M139.317 195.876c1.163.417 2.504-.269 2.951-1.373.477-1.103-.149-2.297-1.192-2.774-1.043-.477-2.296-.209-2.862.805-.537.985-.358 2.327.537 3.043.447.358 1.073-.268.626-.626-1.193-.925-.358-3.103 1.222-2.446.686.268 1.163.984.835 1.73-.328.716-1.163 1.074-1.878.805-.537-.208-.776.657-.239.836z" fill="#000"/><path d="M197.867 155.541l2.624 82.191m-2.444-82.25l2.415 81.087" stroke="#000" stroke-width="3" stroke-miterlimit="10"/><path opacity=".37" d="M146.44 149.992c1.938 1.015 18.573 10.084 19.736 26.194.656 8.89-3.697 15.633-6.439 19.75-14.787 22.255-44.033 26.193-51.964 27.028 11.538 7.668 51.844 32.936 95.907 31.445 9.809-.328 25.013-1.015 41.499-10.084 12.372-6.802 20.392-15.543 24.983-21.361-2.832-1.76-5.634-3.49-8.467-5.25-20.809 7.13-41.648 14.26-62.457 21.361l-3.22-82.669a8947.303 8947.303 0 01-49.578-6.414z" fill="#000"/><path opacity=".5" d="M122.74 224.904a127.344 127.344 0 0017.619 9.755c9.66 4.415 38.25 17.482 69.225 10.233 22.508-5.281 39.919-19.75 38.786-22.136-.715-1.492-9.45.059-48.356 15.543-.626-12.62-1.252-25.269-1.848-37.889-1.073 10.621-2.176 21.242-3.25 31.833-24.058-2.417-48.117-4.893-72.176-7.339z" fill="#000"/><path d="M130.76 190.894c-2.176-2.387-2.892-5.728-1.819-8.652 1.103-2.953 4.025-5.489 7.513-5.37 3.071.119 5.545 2.267 6.44 4.296.656 1.551.506 2.983.506 2.983a5.015 5.015 0 01-.566 1.82c-1.52-1.76-3.846-2.565-6.022-2.058-2.683.626-3.846 2.923-3.965 3.132-1.222 2.506-.149 4.833 0 5.102a54.858 54.858 0 00-2.087-1.253z" fill="#000"/><path d="M281.613 153.125a23.926 23.926 0 00-4.919 4.922c-5.873 7.906-5.068 17.184-4.651 20.197-5.217-1.074-13.982-2.118-24.327.269a56.447 56.447 0 00-14.757 5.698 8.522 8.522 0 002.325 1.044c5.575 1.522 11.448-3.162 11.627-2.834.179.298-6.559 3.461-6.201 6.205.239 1.85 3.548 2.834 6.976 3.879 2.892.865 5.635 1.7 9.302 1.282 5.038-.566 8.526-3.102 10.076-4.415a43.44 43.44 0 006.47 2.596c5.098 1.551 12.133 3.699 16.814.775 3.041-1.909 3.965-6.384 5.694-15.274 2.206-11.397 3.309-17.095.269-20.705-4.025-4.803-12.104-3.997-14.698-3.639z" fill="#fff" stroke="#000" stroke-width="3" stroke-miterlimit="10"/><path d="M271.029 178.543c3.607 1.342 6.589 3.789 8.646 7.04.298.478 1.073.03.775-.447-2.176-3.461-5.366-6.026-9.182-7.458-.537-.179-.776.686-.239.865zm-19.168 5.907c-3.548.596-6.41 2.983-7.692 6.324-.209.537.656.776.865.239 1.162-3.043 3.845-5.161 7.065-5.698.567-.09.328-.955-.238-.865z" fill="#000"/><path d="M244.585 191.341c1.848 1.76 4.412 2.357 6.827 1.581.537-.179.298-1.044-.239-.865-2.116.686-4.352.209-5.962-1.342-.417-.418-1.043.209-.626.626z" fill="#000"/><path d="M256.004 187.403c-1.282.776-2.475 1.671-3.608 2.626-.745.656-1.58 1.432-1.401 2.506.447 2.834 3.846 2.207 5.694 1.491.537-.209.299-1.074-.238-.865-.805.298-1.699.686-2.564.656-1.401-.059-2.653-1.402-1.461-2.625 1.133-1.193 2.624-2.148 4.025-3.043.507-.269.06-1.044-.447-.746z" fill="#000"/><path d="M280.122 110.552a45.392 45.392 0 014.472 3.968 39.046 39.046 0 012.921 3.282c1.908 2.387 3.131 4.654 4.472 7.428 1.729 3.551 3.459 7.101 5.188 12.411 1.46 4.475 3.696 11.516 3.965 20.883a63.57 63.57 0 01-.358 8.98c-1.222-1.402-2.445-2.327-3.458-2.923-5.694-3.491-12.611-2.238-19.14-1.045a66.577 66.577 0 00-5.873 1.373c.358-3.282.686-6.564 1.044-9.845.298-2.745.566-5.519.864-8.294-.566-.984-1.341-2.387-2.057-4.147-1.401-3.371-4.204-9.994-2.594-17.422 1.908-8.533 8.616-13.366 10.554-14.649z" fill="#5B7BEC"/><path d="M281.165 112.193c2.982 1.552 4.979 4.237 6.708 7.011a84.946 84.946 0 014.83 8.861c2.922 6.205 5.068 12.768 6.469 19.481.119.567.984.328.865-.239a86.63 86.63 0 00-6.798-20.197c-1.52-3.162-3.189-6.235-5.097-9.189-1.7-2.625-3.697-5.071-6.5-6.533-.536-.239-.983.537-.477.805zm-9.301 30.341a220.42 220.42 0 004.293 8.294c.269.507 1.044.059.775-.448a219.654 219.654 0 01-4.293-8.294c-.268-.537-1.043-.089-.775.448z" fill="#000"/><path d="M273.981 147.665c-.745 5.788-1.49 11.576-2.206 17.363-.03.299.328.507.567.418 5.068-1.611 10.345-2.387 15.651-2.208 4.204.149 9.779.537 12.134 4.654.298.507 1.043.06.775-.447-2.236-3.938-7.125-4.744-11.239-5.012-5.933-.418-11.895.358-17.53 2.148.179.149.388.298.566.417.746-5.787 1.491-11.575 2.207-17.363.059-.537-.835-.537-.925.03z" fill="#000"/><path d="M299.112 147.098c1.043 6.564 2.743 13.515.984 20.108-.149.567.715.806.864.239 1.789-6.743.09-13.843-.983-20.585-.09-.567-.954-.328-.865.238z" fill="#000"/><path opacity=".32" d="M277.856 109.449c2.713 5.071 5.426 11.128 7.721 18.079 4.502 13.723 5.695 26.044 5.784 35.263l-9.123.537c.984 7.07 1.998 14.17 2.982 21.241a30.368 30.368 0 00-8.586-3.341c-1.223-.269-5.724-1.164-10.524-.358-10.077 1.7-16.159 9.964-17.53 11.933 1.371.567 3.13 1.104 5.247 1.223 6.499.388 11.239-3.371 12.641-4.564 4.442 2.237 8.317 3.311 11.06 3.848 4.8.985 10.405 2.118 13.505-.865.239-.239.775-.806 1.938-3.699 1.818-4.595 2.772-8.891 4.025-16.677.268-1.73.655-4.057 1.043-6.832l2.266 2.267a36.212 36.212 0 001.043-5.787c.626-6.355-.596-11.367-1.759-15.454-4.68-16.528-7.483-26.492-16.844-33.712a41.33 41.33 0 00-4.889-3.102z" fill="#000"/><path opacity=".29" d="M293.628 129.885a105.433 105.433 0 012.116 23.956c-.149 5.549-.715 9.606-1.311 13.693-1.759 12.321-2.654 18.467-6.052 21.331-6.44 5.43-17.918 1.313-20.66.269 2.593 1.73 11.925 7.607 21.047 4.355.954-.358 1.998-.805 3.011-1.462a31.308 31.308 0 003.429-8.293c.536-2.178.685-3.759.894-5.609.328-2.983.895-7.339 1.849-12.798.864.745 1.758 1.491 2.623 2.237.298-1.521.686-3.848.775-6.712.268-6.922-1.252-12.172-3.011-18.169-.954-3.282-2.445-7.697-4.71-12.798z" fill="#000"/><path d="M211.672 51.572c.298 3.192.835 7.667 2.027 12.948.775 3.43 1.252 5.608 2.266 8.323 1.52 4.087 4.412 11.904 11.955 17.005 1.818 1.253 4.829 2.924 9.063 3.908.685.06 1.371.15 2.057.21.238 1.252.536 3.102.835 5.34.715 5.757.357 7.517 1.848 9.069 1.819 1.879 4.71 1.7 5.336 1.641 4.979-.329 7.483-5.281 7.603-5.55a29.272 29.272 0 01-2.266-5.34c-1.431-4.624-1.461-8.74-1.222-11.545 2.295-3.312 4.829-5.847 7.393-7.817.984-.745 1.819-1.76 3.279-2.267 2.087-.716 3.161 0 4.711-.477 2.564-.806 3.667-4.117 4.144-5.49 1.818-5.43-.418-10.8-1.849-13.991-1.282-2.924-4.621-10.174-12.759-15.842-8.378-5.847-25.132-12.35-36.223-3.908-1.908 1.462-6.26 5.37-8.198 13.783z" fill="#fff"/><path d="M212.925 63.863c-1.908-.328-6.738-1.462-9.868-5.608-4.77-6.295-2.206-15.096.447-19.75 4.174-7.31 11.776-9.845 21.316-13.037 5.664-1.88 11.06-3.67 18.394-3.371 4.055.179 17.798.775 26.026 11.008 4.89 6.056 5.426 12.56 6.5 25.388.506 5.878.119 9.07-.895 12.113-.745 2.207-3.16 9.278-10.106 12.112-3.637 1.492-7.006 1.193-8.855.895a1077.23 1077.23 0 015.039-7.399c.954.06 4.352.12 6.946-2.237 3.548-3.252 4.174-9.726 1.58-11.456-1.908-1.283-5.694-.03-8.973 2.924-.299-1.88-.776-3.938-1.58-6.057-3.757-10.113-11.925-15.662-15.92-17.96-1.58 2.03-6.589 7.966-15.473 10.323a28.84 28.84 0 01-15.473-.239l.895 12.351z" fill="#000"/><path d="M211.434 52.348c1.222 9.218 2.504 18.795 7.006 27.088 3.697 6.802 9.659 12.62 17.321 14.56.566.148.805-.717.238-.866-7.572-1.94-13.415-7.787-16.993-14.559-4.263-8.055-5.485-17.303-6.678-26.223-.089-.567-.983-.567-.894 0z" fill="#000"/><path d="M235.762 94.114c5.396 0 11.06-2.893 15.294-5.996a35.513 35.513 0 0010.255-11.814c.268-.507-.507-.955-.775-.448-2.415 4.535-5.784 8.473-9.928 11.486-4.144 3.043-9.629 5.877-14.846 5.877-.597 0-.597.895 0 .895z" fill="#000"/><path d="M251.026 87.402c-.597 6.026.566 12.053 3.309 17.452.268.508 1.043.06.775-.447-2.683-5.28-3.757-11.128-3.19-17.005.06-.567-.835-.567-.894 0z" fill="#000"/><path d="M238.056 93.965a94.569 94.569 0 012.385 10.352c.388 2.327.537 4.953 3.131 5.818 3.875 1.313 9.599-1.014 11.09-4.863.208-.537-.656-.776-.865-.239-.835 2.178-2.921 3.372-5.068 3.998-1.789.507-4.502 1.044-6.022-.418-.894-.865-1.014-2.237-1.192-3.401a162.214 162.214 0 00-.656-3.669 99.83 99.83 0 00-1.908-7.817c-.179-.537-1.044-.298-.895.24z" fill="#000"/><path d="M239.339 97.665c5.307-.687 8.795-4.744 11.358-9.1.299-.507-.477-.954-.775-.447-2.355 4.057-5.634 8.025-10.583 8.652-.567.09-.567.984 0 .895z" fill="#000"/><path d="M239.131 94.621a16.633 16.633 0 0010.643-5.548c.387-.418-.239-1.074-.626-.627-2.594 2.954-6.112 4.833-10.017 5.28-.537.06-.567.955 0 .895z" fill="#000"/><path d="M239.279 93.965c3.339-.477 6.35-1.85 8.914-4.027.447-.388-.209-1.015-.626-.627-2.445 2.089-5.336 3.371-8.526 3.819-.567.06-.328.925.238.835z" fill="#000"/><path d="M239.099 94.711c.149.716.119 2.148 1.014 2.387.864.238 2.176-.776 2.862-1.194 2.355-1.432 4.323-3.37 5.873-5.638.328-.478-.447-.925-.775-.448-1.103 1.641-2.445 3.103-4.025 4.296a19.165 19.165 0 01-2.325 1.492c-.328.179-1.074.686-1.402.477-.208-.119-.298-1.402-.327-1.61-.15-.567-1.014-.329-.895.238z" fill="#000"/><path d="M239.518 95.546a37.044 37.044 0 007.244-3.938c.477-.328.03-1.104-.447-.775a35.02 35.02 0 01-7.036 3.848c-.537.21-.298 1.074.239.865z" fill="#000"/><path d="M239.965 96.441c2.862-1.014 5.366-2.595 7.453-4.803.388-.418-.239-1.044-.626-.626-1.998 2.058-4.353 3.61-7.066 4.564-.536.209-.298 1.074.239.865z" fill="#000"/><path d="M240.441 95.964c2.117-.925 4.055-2.178 5.724-3.789.418-.388-.208-1.014-.626-.626-1.639 1.551-3.488 2.744-5.545 3.64-.536.238-.089 1.014.447.775zm-24.355-20.943c-4.86-1.73-6.47-8.085-5.993-12.68.507-5.041 5.039-10.53 10.584-8.174 2.653 1.134 3.637 4.058 4.352 6.653.746 2.745 1.074 5.788.358 8.592-.626 2.476-2.146 4.833-4.531 5.907-2.385 1.074-5.218.478-6.827-1.58-.358-.448-.984.178-.627.626 2.713 3.49 7.811 2.804 10.554-.269 3.488-3.908 3.13-9.845 1.64-14.529-.686-2.178-1.58-4.445-3.578-5.698-1.729-1.104-3.935-1.372-5.873-.865-4.531 1.223-6.887 6.026-6.976 10.412-.089 4.803 1.789 10.74 6.738 12.47.477.18.715-.686.179-.865z" fill="#000"/><path d="M226.4 66.1c2.921-1.76 6.469-1.938 9.51-.417.507.269.954-.507.447-.776-3.339-1.67-7.214-1.521-10.434.418-.447.299 0 1.074.477.776z" fill="#000"/><path d="M240.649 72.455c-3.368-3.251-4.77-8.293-3.458-12.828 1.372-4.714 6.082-8.771 11.15-7.1 5.605 1.85 5.903 9.874 4.442 14.588-.864 2.775-2.594 5.55-5.456 6.564-2.862 1.014-5.336-.508-7.632-2.119-.477-.328-.924.448-.447.776 1.878 1.343 3.906 2.685 6.291 2.596 2.265-.09 4.322-1.343 5.724-3.044 3.16-3.818 3.786-9.636 2.474-14.29-1.192-4.236-4.71-6.98-9.212-6.235-4.293.686-7.453 4.565-8.407 8.622-1.103 4.684.387 9.755 3.846 13.097.477.418 1.103-.239.685-.627zm-21.851-9.815c-.298 1.88.03 3.7 1.044 5.31.208.329.685.269.804-.119.716-2.058-.298-4.087-1.311-5.847-.209-.388-.835-.209-.835.238.03 1.582.358 3.133.954 4.595.209.537 1.073.298.865-.239-.567-1.402-.895-2.834-.925-4.356-.268.09-.566.15-.834.24.924 1.58 1.878 3.31 1.222 5.16.268-.03.537-.06.805-.12a6.481 6.481 0 01-.954-4.623c.119-.567-.745-.806-.835-.239z" fill="#000"/><path d="M245.181 61.805c0-.388-.03-.477-.209-.806-.208-.388-.835-.209-.835.239.03 1.85.179 3.849 1.61 5.161.298.269.716.06.775-.328.239-2.208-.417-4.266-1.788-5.996-.298-.358-.835.03-.746.447a33.78 33.78 0 001.342 4.266c.209.537 1.073.299.865-.239a27.16 27.16 0 01-1.342-4.266c-.239.15-.507.299-.745.448 1.222 1.551 1.729 3.4 1.52 5.37.268-.12.507-.209.775-.328-1.282-1.164-1.341-2.924-1.371-4.535-.268.09-.567.15-.835.239l.09.358c0 .537.894.537.894-.03zm-15.801 5.877c-.596 1.79-1.103 3.61-1.431 5.46-.179.984-.805 2.834-.357 3.818.894 1.999 4.859.776 6.23.12.507-.24.06-1.015-.447-.776-1.103.537-2.295.805-3.518.716-.715-.06-1.282-.18-1.431-.985-.089-.447.209-1.61.298-2.118.358-2.058.895-4.057 1.551-6.026.149-.507-.716-.746-.895-.209zm4.502 17.214c2.236-.298 4.174-1.73 5.158-3.789.238-.507-.537-.984-.776-.448-.894 1.88-2.563 3.103-4.62 3.372-.567.09-.299.954.238.865zM216.92 60.075a1.649 1.649 0 012.325-.21c.447.389 1.074-.268.626-.626-1.043-.895-2.653-.835-3.577.209-.388.418.238 1.044.626.627zm25.579-1.671a2.522 2.522 0 013.249-.03c.447.358 1.073-.269.626-.627-1.312-1.133-3.22-1.103-4.531.03-.418.388.238 1.015.656.627zm11.746 4.116c3.22-1.133 6.529-1.819 9.957-1.998.567-.03.567-.925 0-.895a36.2 36.2 0 00-10.196 2.029c-.536.209-.328 1.074.239.865z" fill="#000"/><path opacity=".4" d="M258.686 25.349c1.789 2.297 8.675 11.724 7.393 24.672-.715 7.22-3.696 12.53-5.575 15.334a21.736 21.736 0 012.684-1.79c1.818-1.014 2.981-1.64 4.471-1.551.448.03 1.521.119 2.296.745 2.266 1.91 1.491 8.682-2.534 11.844-2.206 1.73-4.8 1.91-6.112 1.88-1.699 2.416-3.428 4.833-5.127 7.28 1.133.178 2.862.327 4.859.029.865-.12 4.323-.746 7.602-3.371 3.22-2.596 4.532-5.758 5.396-7.906 2.385-5.967 1.908-11.217 1.074-20.675-.358-4.206-.567-6.354-1.402-9.188-.894-3.073-2.295-7.608-6.29-11.665-2.862-2.983-6.082-4.654-8.735-5.638z" fill="#000"/><path opacity=".48" d="M229.889 50.856a72.788 72.788 0 009.54-10.293 73.567 73.567 0 005.038-7.518c-.507 2.685-1.014 5.37-1.491 8.055a25.97 25.97 0 01-6.111 6.236 26.2 26.2 0 01-6.976 3.52z" fill="#000"/><path opacity=".27" d="M251.085 47.455c2.266 7.548 2.444 13.873 2.236 18.05-.149 3.102-.984 19.361-9.54 24.97-.835.537-2.952 1.79-2.862 1.969.119.209 4.084-1.552 6.26-2.745 3.429-1.85 8.706-5.579 13.595-13.455.805.09 4.74.358 7.572-2.357 3.429-3.252 4.025-9.636 1.312-11.515-1.938-1.343-5.634-.21-8.884 2.476a36.726 36.726 0 00-1.312-4.326c-2.236-5.907-5.605-10.203-8.377-13.067z" fill="#000"/><path opacity=".36" d="M243.9 92.205c.776 2.387 1.551 4.773 2.326 7.19 1.073 3.282 2.116 6.593 3.16 9.875a6.613 6.613 0 003.339-1.85 7.272 7.272 0 001.848-3.341 29.762 29.762 0 01-3.011-10.203 28.949 28.949 0 010-6.027 635.678 635.678 0 01-7.662 4.356z" fill="#000"/><path opacity=".43" d="M229.023 68.726c-1.491 3.192-2.982 6.355-4.472 9.547 2.444-.06 4.859-.09 7.304-.15-1.431-.447-2.892-.894-4.323-1.342.477-2.685.984-5.37 1.491-8.055z" fill="#000"/></g><defs><clipPath id="clip0"><path fill="#fff" d="M0 0h393v290H0z"/></clipPath></defs></svg>